<svg width="220" height="198" viewBox="0 0 220 198" fill="none" xmlns="http://www.w3.org/2000/svg">
<ellipse cx="110.839" cy="166.69" rx="32.129" ry="31.3104" fill="white"/>
<path d="M220 61.008L162.025 35.0799L168.558 98.2515L220 61.008ZM120 141L125.475 141.522C127.602 119.208 132.761 103.655 140.469 92.7715C148.082 82.0217 158.529 75.3406 172.285 71.3856L170.765 66.0997L169.245 60.8139C153.575 65.3193 140.816 73.2486 131.492 86.4139C122.262 99.446 116.752 117.112 114.525 140.478L120 141Z" fill="white"/>
<path d="M-1.14038e-06 61.127L57.2387 33.6123L52.4478 96.9398L-1.14038e-06 61.127ZM100 141H94.5C94.5 116.648 88.6156 100.639 80.1887 89.9871C71.7534 79.3241 60.2856 73.4144 47.9669 70.1813L49.3632 64.8615L50.7594 59.5417C64.629 63.1819 78.4796 70.0968 88.8156 83.1625C99.1601 96.2388 105.5 114.863 105.5 141H100Z" fill="white"/>
<path d="M111 0.5L79.2462 55.5L142.755 55.5L111 0.5ZM111 140.414L116.5 140.414L116.5 50L111 50L105.5 50L105.5 140.414L111 140.414Z" fill="white"/>
</svg>
