<svg xmlns="http://www.w3.org/2000/svg" version="1.1" xmlns:xlink="http://www.w3.org/1999/xlink" width="4476" height="4812"><svg width="4476" height="4812" viewBox="0 0 4476 4812" fill="none" xmlns="http://www.w3.org/2000/svg">
<path d="M0 0V4812H-0.00390625V0H0ZM2385.64 167.447C2402.19 167.326 2418.44 172.64 2431.93 182.65C2433.6 183.893 2435.3 185.088 2437.02 186.239C2444.11 190.836 2451.13 195.535 2458.15 200.252C2464.55 204.553 2470.94 208.853 2477.36 213.133C2486.04 218.93 2494.71 224.76 2503.37 230.603C2509.77 234.927 2516.17 239.236 2522.63 243.472C2527.5 246.662 2532.34 249.883 2537.17 253.131C2539.09 254.427 2541.02 255.722 2542.94 257.017C2544.48 258.051 2544.48 258.051 2545.99 259.064C2552.89 263.702 2559.8 268.322 2566.71 272.938C2570.75 275.635 2574.79 278.334 2578.82 281.032C2580.46 282.125 2582.09 283.218 2583.73 284.311C2584.96 285.137 2584.96 285.137 2586.18 285.947C2588.62 287.584 2591.07 289.22 2593.52 290.856C2594.35 291.413 2595.16 291.953 2595.97 292.493C2597.6 293.584 2599.23 294.675 2600.87 295.766C2604.98 298.518 2609.1 301.27 2613.22 304.025C2614.93 305.171 2616.64 306.317 2618.35 307.463C2619.21 308.038 2620.05 308.598 2620.88 309.156C2625.1 311.978 2629.32 314.797 2633.56 317.575C2639.06 321.157 2644.5 324.816 2649.9 328.556C2658.7 334.661 2667.58 340.637 2676.54 346.498C2682.94 350.683 2689.34 354.87 2695.63 359.23C2703.07 364.41 2710.58 369.437 2718.16 374.394C2727.19 380.299 2736.16 386.288 2745.1 392.346C2754 398.381 2762.89 404.4 2771.95 410.175C2775.56 412.444 2779.12 414.738 2782.59 417.232C2788.89 421.842 2795.28 426.261 2801.79 430.551C2804.29 432.187 2806.78 433.825 2809.27 435.466C2810.58 436.328 2811.85 437.164 2813.12 438C2818.15 441.31 2823.17 444.63 2828.18 447.975C2828.96 448.502 2829.73 449.014 2830.49 449.525C2841.08 456.623 2841.08 456.623 2851.66 463.733C2856.8 467.183 2861.93 470.636 2867.08 474.055C2876.53 480.313 2885.94 486.636 2895.34 492.975C2908.6 501.913 2921.82 510.911 2935.19 519.674C2955.59 533.185 2955.6 533.185 2975.87 546.899C2985.87 553.659 2995.88 560.4 3005.92 567.096C3009.81 569.689 3013.7 572.285 3017.58 574.882C3018.41 575.434 3019.21 575.97 3020.01 576.506C3026.21 580.65 3032.41 584.803 3038.6 588.963C3041.53 590.931 3044.46 592.898 3047.39 594.865C3049.28 596.134 3051.17 597.403 3053.06 598.673C3060.97 603.987 3068.84 609.354 3076.87 614.472C3086.94 620.887 3096.81 627.576 3106.64 634.38C3114.97 640.15 3123.29 645.912 3131.84 651.34C3137.72 655.07 3143.49 658.933 3149.22 662.897C3158.6 669.404 3168.02 675.818 3177.56 682.062C3187.68 688.678 3197.74 695.378 3207.77 702.133C3211.98 704.971 3216.2 707.798 3220.43 710.618C3227.77 715.519 3235.11 720.438 3242.43 725.372C3257.12 735.274 3271.79 745.21 3286.54 755.009C3287.85 755.878 3289.12 756.722 3290.4 757.565C3293.99 759.963 3297.59 762.358 3301.22 764.707C3311.3 771.229 3321.74 777.333 3329.79 786.53C3330.5 787.406 3331.18 788.256 3331.87 789.106C3332.69 790.058 3333.48 790.982 3334.28 791.905C3350.1 811.077 3353.06 832.517 3351.46 856.948C3350.35 861.671 3350.15 866.112 3350.11 870.944C3350.11 872.041 3350.11 873.105 3350.1 874.17C3350.09 876.542 3350.07 878.914 3350.05 881.286C3350.04 885.238 3350.02 889.19 3349.99 893.143C3349.95 898.894 3349.91 904.646 3349.88 910.397C3349.78 927.048 3349.66 943.698 3349.52 960.349C3349.52 961.188 3349.51 962.003 3349.5 962.817C3349.23 997.129 3348.79 1031.44 3348.22 1065.74C3348.18 1068.56 3348.13 1071.37 3348.08 1074.18C3347.85 1088.64 3347.61 1103.09 3347.37 1117.54C3346.84 1149.08 3346.33 1180.63 3345.83 1212.17C3345.81 1213.82 3345.78 1215.46 3345.76 1217.11C3344.91 1270.61 3344.17 1324.11 3343.54 1377.61C3343.53 1378.48 3343.52 1379.33 3343.51 1380.18C3343.11 1414.71 3342.72 1449.25 3342.34 1483.78C3342.27 1489.95 3342.2 1496.12 3342.13 1502.29C3342.12 1503.83 3342.1 1505.33 3342.08 1506.83C3342.05 1509.8 3342.02 1512.78 3341.99 1515.76C3341.89 1524.18 3341.8 1532.6 3341.71 1541.03C3341.45 1565.77 3341.17 1590.51 3340.69 1615.24C3340.64 1617.66 3340.59 1620.07 3340.54 1622.49C3340.32 1634.07 3340.1 1645.63 3339.32 1657.18C3338.81 1663.81 3338.1 1670.53 3339.94 1677C3343.37 1681.32 3346.48 1683.06 3351.4 1685.17C3357.41 1687.64 3362.76 1690.97 3368.28 1694.43C3371.62 1696.53 3374.98 1698.6 3378.34 1700.66C3382.9 1703.43 3387.46 1706.22 3392.01 1709.01C3394.31 1710.43 3396.62 1711.84 3398.92 1713.25C3400.02 1713.93 3401.08 1714.58 3402.15 1715.23C3408.16 1718.93 3414.19 1722.54 3420.34 1725.98C3423.55 1727.78 3426.7 1729.6 3429.83 1731.55C3441.12 1739.19 3452.61 1746.43 3464.29 1753.4C3484.42 1765.38 3504.36 1777.7 3524.27 1790.07C3530.33 1793.83 3536.39 1797.59 3542.48 1801.28C3549.83 1805.74 3557.18 1810.2 3564.51 1814.68C3565.59 1815.34 3566.64 1815.98 3567.69 1816.62C3573.17 1819.97 3578.65 1823.31 3584.12 1826.67C3585.28 1827.38 3586.41 1828.07 3587.53 1828.76C3589.75 1830.12 3591.97 1831.48 3594.19 1832.84C3599.18 1835.91 3604.16 1838.99 3609.27 1841.84C3614.31 1844.63 3619.24 1847.45 3623.98 1850.76C3628.49 1853.94 3633.1 1856.87 3637.8 1859.74C3638.86 1860.38 3639.89 1861.01 3640.92 1861.63C3648.33 1866.14 3655.76 1870.59 3663.23 1874.97C3674.55 1881.58 3685.69 1888.45 3696.79 1895.45C3707.03 1901.9 3717.31 1908.28 3727.64 1914.56C3732.95 1917.78 3738.24 1921.02 3743.51 1924.31C3747.93 1927.08 3752.36 1929.84 3756.88 1932.42C3762.37 1935.46 3767.76 1938.58 3773.05 1941.97C3778.64 1945.56 3784.25 1949.09 3789.89 1952.59C3790.93 1953.23 3791.93 1953.85 3792.93 1954.47C3794.82 1955.63 3796.71 1956.8 3798.59 1957.97C3801.45 1959.74 3804.31 1961.51 3807.17 1963.28C3812.38 1966.52 3817.61 1969.74 3822.85 1972.92C3832.82 1978.94 3842.73 1985.06 3852.62 1991.21C3864.89 1998.89 3877.23 2006.48 3889.82 2013.59C3894.96 2016.43 3899.98 2019.36 3904.9 2022.61C3915.33 2029.56 3925.9 2036.21 3936.65 2042.62C3956.78 2054.6 3976.72 2066.92 3996.63 2079.29C4002.69 2083.05 4008.75 2086.81 4014.84 2090.5C4022.19 2094.96 4029.54 2099.42 4036.87 2103.9C4037.95 2104.56 4039 2105.2 4040.05 2105.84C4045.53 2109.19 4051.01 2112.53 4056.48 2115.89C4057.64 2116.6 4058.77 2117.29 4059.89 2117.98C4062.11 2119.34 4064.33 2120.7 4066.55 2122.06C4071.57 2125.15 4076.58 2128.23 4081.71 2131.13C4086.96 2134.06 4092.16 2136.99 4097.19 2140.31C4105.66 2145.94 4114.3 2151.29 4122.97 2156.59C4123.67 2157.02 4124.34 2157.43 4125.02 2157.84C4133.53 2163.04 4142.05 2168.22 4150.58 2173.39C4157.27 2177.44 4163.92 2181.54 4170.56 2185.66C4186 2195.25 4201.47 2204.76 4217 2214.18C4218.65 2215.18 4220.29 2216.18 4221.93 2217.17C4222.74 2217.66 4223.53 2218.14 4224.32 2218.62C4230.37 2222.29 4236.4 2226 4242.42 2229.74C4250.09 2234.52 4257.78 2239.26 4265.54 2243.89C4274.29 2249.1 4283 2254.36 4291.65 2259.75C4295.96 2262.44 4300.28 2265.13 4304.59 2267.81C4305.6 2268.43 4306.58 2269.04 4307.56 2269.65C4313.17 2273.13 4318.78 2276.61 4324.44 2280C4327.7 2281.95 4330.95 2283.92 4334.19 2285.92C4335.73 2286.87 4337.27 2287.82 4338.81 2288.76C4349.49 2295.19 4358.46 2302.52 4367.25 2311.53C4396.81 2342.6 4416.15 2382.62 4416.32 2426.87C4416.31 2428.24 4416.3 2429.58 4416.29 2430.92C4416.01 2472.27 4402.26 2514.19 4374.46 2544.66C4373.7 2545.47 4372.96 2546.26 4372.22 2547.04C4362.23 2557.89 4351.15 2567.33 4339 2575.46C4338.2 2575.99 4337.42 2576.5 4336.65 2577.02C4329.91 2581.5 4323.12 2585.88 4316.27 2590.18C4309.26 2594.58 4302.27 2599.03 4295.32 2603.52C4280.14 2613.34 4264.95 2623.12 4249.69 2632.8C4241.35 2638.09 4233.05 2643.44 4224.75 2648.8C4218.7 2652.71 4212.66 2656.64 4206.58 2660.5C4200.17 2664.55 4193.78 2668.63 4187.41 2672.76C4186.39 2673.41 4185.41 2674.05 4184.43 2674.69C4183.46 2675.31 4182.52 2675.92 4181.58 2676.52C4180.22 2677.41 4180.22 2677.41 4178.88 2678.28C4175.07 2680.75 4171.87 2683.34 4168.3 2686.29C4173 2688.72 4177.56 2691.08 4182.12 2693.43V2695.82C4185.47 2695.57 4185.47 2695.57 4187.87 2696.9C4188.75 2697.42 4189.61 2697.92 4190.47 2698.43C4191.94 2699.28 4191.94 2699.28 4193.37 2700.11C4195.45 2701.32 4197.52 2702.53 4199.6 2703.74C4200.67 2704.35 4201.71 2704.95 4202.74 2705.55C4207.17 2708.1 4211.63 2710.54 4216.18 2712.85C4220.36 2714.97 4224.48 2717.16 4228.57 2719.47C4231.96 2721.4 4235.36 2723.32 4238.78 2725.21C4246.48 2729.44 4254.17 2733.7 4261.84 2737.99C4275.9 2745.88 4289.99 2753.7 4304.1 2761.5C4308.16 2763.75 4312.23 2765.99 4316.29 2768.24C4341.96 2782.47 4367.67 2796.66 4393.46 2810.67C4397.64 2812.94 4401.82 2815.2 4405.99 2817.49C4406.92 2818 4407.81 2818.5 4408.71 2819C4410.47 2819.97 4412.23 2820.93 4413.98 2821.9C4418.43 2824.38 4422.86 2826.77 4427.5 2828.83C4429.26 2829.57 4429.26 2829.57 4430.98 2830.31V2832.69C4433.47 2832.53 4433.47 2832.53 4436.28 2833.99C4437.46 2834.56 4438.61 2835.11 4439.76 2835.66C4441.83 2836.65 4443.89 2837.64 4445.95 2838.64V2841.02C4449.38 2840.73 4449.38 2840.73 4451.87 2842.46C4455.38 2844.73 4458.98 2846.72 4462.64 2848.71C4463.55 2849.21 4464.44 2849.69 4465.32 2850.17C4467.9 2851.57 4470.47 2852.98 4473.05 2854.38C4473.63 2854.69 4474.19 2855 4474.75 2855.3C4474.79 2961.34 4474.83 3067.38 4474.85 3173.42C4474.85 3175.01 4474.85 3176.61 4474.85 3178.2C4474.86 3211.68 4474.87 3245.15 4474.87 3278.62C4474.87 3295.45 4474.88 3312.27 4474.88 3329.1C4474.88 3331.64 4474.88 3334.18 4474.88 3336.71C4474.89 3375.81 4474.9 3414.92 4474.91 3454.02C4474.91 3454.88 4474.91 3455.72 4474.91 3456.56C4474.92 3470.12 4474.92 3483.68 4474.93 3497.24C4474.94 3536.32 4474.96 3575.4 4474.96 3614.48C4474.97 3615.71 4474.96 3615.71 4474.96 3616.91C4474.97 3632.97 4474.97 3649.03 4474.97 3665.09C4474.97 3672.99 4474.97 3680.89 4474.97 3688.78C4474.97 3690.39 4474.97 3691.94 4474.97 3693.5C4474.98 3718.51 4474.98 3743.53 4475 3768.55C4475.01 3793.82 4475.02 3819.08 4475.02 3844.35C4475.01 3859.37 4475.02 3874.38 4475.03 3889.4C4475.04 3899.5 4475.04 3909.61 4475.04 3919.71C4475.03 3925.47 4475.03 3931.23 4475.04 3937C4475.05 3942.29 4475.05 3947.59 4475.05 3952.89C4475.04 3954.82 4475.04 3956.75 4475.04 3958.67C4475.1 3975.1 4474.51 3991.7 4465.94 4006.14C4465.41 4006.98 4464.9 4007.8 4464.39 4008.61C4454 4025.42 4442.07 4035.79 4425.07 4045.29C4420.4 4047.87 4415.81 4050.56 4411.25 4053.33C4397.55 4061.71 4383.71 4069.85 4369.84 4077.94C4356.44 4085.76 4343.07 4093.64 4329.71 4101.55C4321.76 4106.26 4313.8 4110.94 4305.83 4115.6C4304.63 4116.3 4303.46 4116.98 4302.3 4117.66C4292.7 4123.29 4283.06 4128.82 4273.33 4134.2C4268.97 4136.61 4264.66 4139.07 4260.44 4141.72C4252.1 4147.09 4243.68 4152.18 4235.1 4157.12C4231.48 4159.2 4227.89 4161.3 4224.3 4163.42C4223.62 4163.82 4222.96 4164.21 4222.3 4164.6C4220.95 4165.4 4219.64 4166.18 4218.33 4166.95C4214.33 4169.32 4210.32 4171.69 4206.32 4174.05C4202.94 4176.04 4199.55 4178.04 4196.18 4180.04C4187.32 4185.29 4178.43 4190.46 4169.45 4195.47C4162.21 4199.5 4155.05 4203.61 4148 4207.96C4135.98 4215.39 4123.84 4222.58 4111.64 4229.67C4105.91 4232.99 4100.18 4236.33 4094.46 4239.67C4093.3 4240.35 4092.17 4241.01 4091.03 4241.67C4084.51 4245.47 4078 4249.28 4071.5 4253.13C4067.3 4255.62 4063.09 4258.11 4058.84 4260.51C4054.23 4263.07 4049.65 4265.62 4045.24 4268.52C4036.98 4273.74 4036.98 4273.74 4028.56 4278.66C4025.11 4280.68 4021.66 4282.71 4018.22 4284.75C4016.88 4285.54 4015.54 4286.33 4014.19 4287.12C4012.18 4288.31 4010.17 4289.5 4008.15 4290.69C4000.24 4295.39 3992.31 4300.06 3984.33 4304.63C3976.03 4309.38 3967.76 4314.16 3959.53 4319.04C3955.24 4321.59 3950.94 4324.13 3946.65 4326.66C3940.41 4330.34 3934.17 4334.02 3927.94 4337.71C3916.48 4344.48 3905.02 4351.23 3893.52 4357.94C3880.28 4365.66 3867.08 4373.44 3853.89 4381.25C3846.15 4385.83 3838.39 4390.39 3830.62 4394.92C3818.81 4401.81 3807.02 4408.73 3795.25 4415.68C3789.06 4419.35 3782.86 4423.01 3776.65 4426.67C3772.01 4429.41 3767.37 4432.15 3762.74 4434.89C3755.25 4439.32 3747.75 4443.73 3740.22 4448.09C3733.87 4451.77 3727.54 4455.49 3721.23 4459.23C3712.08 4464.64 3702.92 4470.01 3693.63 4475.17C3686.39 4479.19 3679.24 4483.31 3672.18 4487.66C3662.24 4493.8 3652.24 4499.81 3642.15 4505.67C3634.98 4509.84 3627.82 4514.01 3620.7 4518.27C3613.03 4522.88 3605.35 4527.48 3597.65 4532.06C3596.05 4533.01 3596.05 4533.01 3594.48 4533.94C3588.71 4537.38 3582.94 4540.72 3576.96 4543.77C3573.9 4545.32 3570.98 4546.91 3568.04 4548.7C3560.09 4553.98 3551.95 4558.84 3543.71 4563.62C3536.4 4567.87 3529.09 4572.12 3521.84 4576.48C3512.57 4582.06 3503.25 4587.53 3493.89 4592.93C3485.89 4597.54 3477.89 4602.17 3469.94 4606.86C3468.92 4607.46 3467.94 4608.04 3466.96 4608.62C3461.96 4611.58 3456.96 4614.53 3451.98 4617.51C3435.84 4627.13 3419.94 4637.22 3401.99 4642.82C3374.92 4650.17 3349.66 4637.42 3326.69 4623.72C3317.33 4618.01 3317.33 4618.01 3295.58 4605.98C3293.57 4604.86 3291.55 4603.75 3289.53 4602.63C3283.04 4599.04 3276.54 4595.45 3270.04 4591.86C3266.6 4589.96 3263.17 4588.06 3259.73 4586.16C3259.04 4585.78 3258.38 4585.41 3257.71 4585.04C3248.97 4580.21 3240.25 4575.36 3231.56 4570.44C3223.7 4565.98 3215.85 4561.55 3207.81 4557.45C3200.16 4553.56 3192.58 4549.54 3185.29 4544.97C3178.98 4540.96 3172.53 4537.33 3165.97 4533.79C3159.59 4530.36 3153.25 4526.88 3146.98 4523.25C3137.68 4517.84 3128.28 4512.67 3118.81 4507.61C3110.94 4503.42 3103.1 4499.18 3095.33 4494.78C3093.28 4493.62 3091.22 4492.46 3089.17 4491.3C3079.22 4485.72 3069.27 4480.16 3059.42 4474.41C3052.8 4470.54 3046.17 4466.73 3039.46 4463.05C3035.78 4461.04 3032.11 4459.04 3028.46 4456.98C3020.86 4452.68 3013.22 4448.46 3005.57 4444.27C2994.21 4438.06 2982.85 4431.85 2971.58 4425.46C2961.11 4419.51 2950.56 4413.73 2939.94 4408.07C2929.69 4402.63 2919.37 4397.26 2909.45 4391.17C2899.23 4384.77 2888.74 4378.99 2878.16 4373.26C2871.32 4369.55 2864.5 4365.8 2857.72 4361.96C2846.08 4355.36 2834.38 4348.88 2822.64 4342.46C2811.71 4336.48 2800.8 4330.46 2789.95 4324.31C2783.19 4320.46 2776.39 4316.74 2769.47 4313.2C2768.75 4312.83 2768.05 4312.47 2767.34 4312.11V4309.73C2764.01 4309.99 2764.01 4309.99 2761.73 4308.68C2751.75 4302.66 2751.75 4302.66 2729.9 4290.57C2727.88 4289.46 2725.86 4288.34 2723.85 4287.23C2720.94 4285.62 2718.04 4284.01 2715.14 4282.41C2707.57 4278.23 2700.02 4274.05 2692.46 4269.86C2685.66 4266.1 2678.87 4262.34 2672.07 4258.59C2658.47 4251.09 2644.86 4243.64 2631.45 4235.78C2624.39 4231.64 2617.32 4227.5 2610.07 4223.72C2602.87 4220.04 2595.8 4216.15 2588.77 4212.14C2575.06 4204.28 2561.29 4196.58 2547.44 4189C2536.45 4183 2525.49 4176.96 2514.6 4170.78C2507.84 4166.92 2501.04 4163.2 2494.12 4159.66C2493.4 4159.29 2492.69 4158.93 2491.99 4158.58V4156.2C2477.5 4151.94 2477.5 4151.94 2464.41 4142.88C2456.69 4138.2 2448.89 4133.75 2440.94 4129.49C2433.88 4125.72 2426.86 4121.91 2419.89 4117.96C2415.67 4115.56 2411.44 4113.17 2407.2 4110.79C2405.87 4110.04 2404.57 4109.32 2403.28 4108.59C2398.15 4105.7 2393.02 4102.81 2387.88 4099.95C2386.1 4098.96 2384.32 4097.97 2382.54 4096.98C2379.98 4095.54 2377.43 4094.1 2374.86 4092.67C2374.04 4092.22 2373.25 4091.79 2372.46 4091.35C2371.01 4090.52 2369.55 4089.7 2368.09 4088.91C2363.26 4086.79 2359.58 4086.18 2354.66 4088.22C2353.86 4088.72 2353.08 4089.21 2352.3 4089.69C2351.39 4090.25 2350.5 4090.8 2349.61 4091.34C2342.15 4096.1 2334.71 4100.7 2326.83 4104.68C2319.26 4108.48 2311.79 4112.35 2304.52 4116.73C2292.29 4124.13 2279.84 4131.03 2267.31 4137.87C2265.72 4138.73 2264.13 4139.6 2262.54 4140.47C2261.35 4141.12 2261.35 4141.12 2260.19 4141.75C2253.53 4145.39 2246.9 4149.07 2240.3 4152.81C2232.96 4156.98 2225.65 4161.14 2218.15 4164.97C2211.06 4168.57 2204.14 4172.44 2197.27 4176.46C2190.45 4180.47 2183.67 4184.57 2176.64 4188.2C2170.48 4191.33 2164.37 4194.45 2158.46 4198.08C2133.62 4212.65 2133.61 4212.65 2108.34 4226.42C2099.04 4231.53 2089.74 4236.66 2080.5 4241.88C2068.8 4248.49 2057.16 4255.26 2045.22 4261.4C2041.56 4263.25 2037.93 4265.07 2034.42 4267.23C2029.1 4270.62 2023.72 4273.8 2018.18 4276.8C2009.89 4281.27 2001.61 4285.77 1993.38 4290.37C1992.2 4291.03 1991.04 4291.68 1989.89 4292.33C1984.13 4295.56 1978.36 4298.79 1972.61 4302.04C1960.25 4309.06 1947.84 4315.97 1935.31 4322.68C1923.73 4328.84 1912.25 4335.14 1900.96 4341.87C1885.22 4351.03 1885.22 4351.03 1869.28 4359.84C1867.27 4360.95 1865.25 4362.07 1863.23 4363.18C1856.74 4366.78 1850.24 4370.37 1843.74 4373.96C1840.3 4375.86 1836.87 4377.75 1833.44 4379.65C1832.75 4380.03 1832.08 4380.4 1831.41 4380.77C1822.67 4385.6 1813.95 4390.46 1805.26 4395.38C1797.4 4399.84 1789.55 4404.27 1781.51 4408.37C1774.02 4412.18 1766.7 4416.22 1759.44 4420.47C1752.91 4424.3 1746.43 4428.22 1739.72 4431.72C1733.54 4434.81 1727.53 4438.09 1721.59 4441.64C1709.32 4448.99 1696.89 4455.95 1684.35 4462.79C1682.76 4463.66 1681.17 4464.52 1679.59 4465.39C1678.79 4465.83 1678.01 4466.25 1677.24 4466.67C1669.45 4470.92 1661.7 4475.25 1653.98 4479.64C1649.34 4482.28 1644.71 4484.94 1639.97 4487.41C1634.74 4490.08 1629.58 4492.81 1624.51 4495.8C1618.28 4499.5 1612.05 4503.08 1605.59 4506.34C1602.53 4507.85 1599.55 4509.42 1596.63 4511.22C1590.36 4515.15 1584.03 4518.89 1577.57 4522.47C1575.04 4523.87 1572.51 4525.27 1569.99 4526.67C1567.94 4527.8 1565.9 4528.93 1563.85 4530.06C1560.44 4531.94 1557.03 4533.83 1553.62 4535.71C1542.83 4541.7 1532.03 4547.67 1521.23 4553.64C1507.3 4561.33 1493.37 4569.03 1479.51 4576.86C1473.41 4580.31 1467.31 4583.75 1461.17 4587.12C1454.61 4590.72 1448.07 4594.35 1441.56 4598.02C1439.92 4598.94 1439.92 4598.94 1438.32 4599.85C1432.87 4602.92 1427.41 4606 1421.96 4609.09C1411.07 4615.27 1400.15 4621.42 1389.16 4627.42C1387.41 4628.37 1387.41 4628.37 1385.69 4629.3C1364.93 4640.68 1343.18 4648.56 1319.54 4642.61C1318.62 4642.33 1317.74 4642.07 1316.85 4641.8C1307.19 4638.96 1298.84 4634.17 1290.21 4629C1287.51 4627.38 1284.81 4625.8 1282.07 4624.25C1278.31 4622.17 1274.54 4620.12 1270.9 4617.81C1265.88 4614.49 1260.77 4611.4 1255.57 4608.4C1251.16 4605.86 1246.75 4603.31 1242.36 4600.72C1241.28 4600.07 1240.22 4599.45 1239.17 4598.82C1237.03 4597.55 1234.89 4596.28 1232.75 4595.01C1227.35 4591.79 1221.97 4588.57 1216.37 4585.73C1213.58 4584.32 1210.95 4582.84 1208.26 4581.22C1200.78 4576.46 1193.23 4571.86 1185.57 4567.4C1175.93 4561.8 1166.31 4556.17 1156.74 4550.45C1146.88 4544.55 1137.01 4538.67 1127.04 4532.97C1121.68 4529.92 1116.33 4526.85 1111.01 4523.7C1104.37 4519.75 1097.68 4515.88 1090.94 4512.11C1090.19 4511.69 1089.46 4511.28 1088.73 4510.88V4508.5C1085.27 4508.79 1085.27 4508.79 1082.6 4506.96C1078.88 4504.51 1078.88 4504.51 1066.09 4496.99C1065.17 4496.45 1064.28 4495.93 1063.39 4495.41C1060.01 4493.42 1056.62 4491.43 1053.24 4489.44C1051.46 4488.4 1051.46 4488.4 1049.71 4487.37C1044.58 4484.35 1039.47 4481.29 1034.21 4478.53C1031.07 4476.94 1027.99 4475.38 1025.03 4473.44C1020.46 4470.06 1015.79 4467.11 1010.82 4464.39C995.503 4456.01 980.447 4447.1 965.531 4437.98C959.497 4434.29 953.434 4430.66 947.313 4427.12C943.132 4424.7 938.953 4422.29 934.796 4419.83C933.181 4418.87 933.181 4418.87 931.599 4417.94C929.444 4416.66 927.29 4415.38 925.136 4414.1C919.764 4410.89 914.418 4407.69 908.849 4404.87C905.042 4402.94 901.385 4400.82 897.738 4398.59C896.112 4397.58 894.484 4396.58 892.854 4395.58C891.954 4395.03 891.081 4394.5 890.208 4393.96C871.067 4382.25 851.836 4370.55 832.248 4359.65C823.443 4354.62 823.443 4354.62 814.75 4349.38C809.898 4346.45 805.078 4343.48 800.048 4340.88C799.098 4340.41 798.175 4339.95 797.253 4339.49V4337.11C793.804 4337.4 793.803 4337.4 791.195 4335.61C788.288 4333.7 785.327 4331.94 782.323 4330.2C780.793 4329.32 779.263 4328.43 777.734 4327.54C776.868 4327.04 776.028 4326.55 775.188 4326.07C760.886 4317.77 746.561 4309.52 732.447 4300.88C727.328 4297.75 722.2 4294.66 716.966 4291.73C712.487 4289.24 708.057 4286.68 703.645 4284.07C697.6 4280.49 691.543 4276.93 685.477 4273.38C684.334 4272.72 683.224 4272.07 682.115 4271.42C676.328 4268.05 670.541 4264.67 664.749 4261.3C653.395 4254.7 642.048 4248.1 630.847 4241.22C626.291 4238.4 621.734 4235.69 616.98 4233.23C614.928 4232.2 614.929 4232.19 612.917 4231.18V4228.8C609.371 4229.07 609.37 4229.07 606.243 4227.09C604.225 4225.86 602.207 4224.63 600.185 4223.41C599.424 4222.95 598.686 4222.51 597.948 4222.06C594.193 4219.79 590.408 4217.57 586.606 4215.38C580.255 4211.72 573.943 4208.01 567.685 4204.18C560.09 4199.53 552.455 4194.98 544.728 4190.56C539.143 4187.38 533.566 4184.19 528.032 4180.91C522.659 4177.72 517.275 4174.56 511.82 4171.52C507.915 4169.37 504.111 4167.08 500.321 4164.72C495.611 4161.79 490.871 4158.92 486.098 4156.1C484.651 4155.25 484.651 4155.25 483.233 4154.41C475.072 4149.6 466.892 4144.83 458.698 4140.08C457.419 4139.34 456.177 4138.62 454.936 4137.9C449.255 4134.61 443.577 4131.32 437.856 4128.1C433.366 4125.59 428.871 4123.1 424.495 4120.38C415.878 4114.91 407.149 4109.69 398.339 4104.57C391.072 4100.35 383.814 4096.12 376.607 4091.78C368.359 4086.82 360.074 4081.92 351.748 4077.1C350.452 4076.35 349.193 4075.62 347.935 4074.89C341.035 4070.9 334.124 4066.93 327.174 4063.04C324.44 4061.51 321.738 4059.98 319.091 4058.3C315.489 4055.91 311.862 4053.61 308.119 4051.46C295.587 4044.29 281.127 4037.39 271.396 4026.27C270.782 4025.53 270.187 4024.81 269.592 4024.08C264.222 4018.11 260.046 4011.95 256.561 4004.65C256.144 4003.75 255.739 4002.87 255.334 4001.99C249.66 3989.77 248.516 3978.51 248.558 3965.08C248.564 3963.22 248.565 3961.35 248.563 3959.49C248.553 3954.3 248.551 3949.11 248.56 3943.93C248.569 3938.22 248.568 3932.52 248.563 3926.82C248.555 3916.82 248.554 3906.82 248.561 3896.82C248.572 3881.84 248.574 3866.86 248.569 3851.88C248.562 3826.68 248.563 3801.48 248.573 3776.29C248.583 3751.21 248.59 3726.12 248.59 3701.04V3674.98C248.59 3657.3 248.59 3639.62 248.591 3621.94C248.591 3621.11 248.591 3620.31 248.591 3619.5C248.592 3593.84 248.596 3568.19 248.604 3542.53C248.604 3541.67 248.604 3540.84 248.604 3540.01C248.608 3526.49 248.612 3512.96 248.616 3499.44C248.632 3445.76 248.64 3392.08 248.64 3338.4V3295.26C248.639 3251.05 248.643 3206.85 248.65 3162.65C248.651 3161.03 248.651 3159.46 248.651 3157.89C248.652 3151.57 248.653 3145.26 248.654 3138.94C248.658 3116.96 248.661 3094.98 248.661 3073C248.662 3044.54 248.665 3016.07 248.676 2987.61C248.682 2972.55 248.687 2957.48 248.686 2942.42C248.684 2932.29 248.685 2922.16 248.691 2912.03C248.695 2906.26 248.7 2900.49 248.698 2894.72C248.695 2889.4 248.694 2884.08 248.699 2878.76C248.702 2876.84 248.704 2874.92 248.705 2873C248.701 2870.34 248.698 2867.69 248.702 2865.03C248.704 2864.22 248.706 2863.44 248.708 2862.66C248.709 2860.21 248.739 2857.75 248.854 2855.3C250.112 2853.9 250.112 2853.9 252.539 2852.64C253.682 2852 254.792 2851.39 255.901 2850.77C257.174 2850.06 258.41 2849.37 259.646 2848.69C261.677 2847.56 263.709 2846.44 265.74 2845.31C276.076 2839.58 286.44 2833.89 296.832 2828.27C300.888 2826.07 304.937 2823.86 308.981 2821.64C314.133 2818.82 319.286 2815.99 324.46 2813.21C335.433 2807.32 346.405 2801.45 357.244 2795.31C367.384 2789.55 377.572 2783.9 387.84 2778.38C388.545 2778 389.23 2777.64 389.914 2777.27C395.477 2774.27 400.995 2771.13 406.755 2768.55C409.371 2767.46 411.925 2766.37 414.345 2764.86C421.737 2759.91 429.472 2755.72 437.263 2751.5C440.746 2749.61 444.226 2747.72 447.706 2745.82C448.612 2745.33 449.492 2744.85 450.372 2744.37C458.328 2740.04 466.259 2735.67 474.177 2731.27C483.596 2726.03 492.998 2720.77 502.604 2715.9C509.288 2712.51 515.864 2708.94 522.422 2705.3C523.714 2704.58 524.968 2703.88 526.222 2703.18C527.468 2702.49 528.676 2701.82 529.886 2701.14C531.057 2700.49 532.195 2699.85 533.332 2699.21C537.058 2697.13 540.457 2694.95 543.791 2692.24C531.448 2684.23 519.145 2676.15 506.915 2667.95C501.966 2664.63 497.003 2661.33 492.037 2658.04C490.087 2656.75 488.137 2655.45 486.187 2654.16C477.767 2648.55 469.337 2642.97 460.884 2637.42C451.944 2631.55 443.013 2625.67 434.126 2619.72C430.02 2616.97 425.915 2614.21 421.79 2611.49C415.464 2607.35 409.162 2603.17 402.875 2598.96C397.443 2595.33 392.011 2591.69 386.566 2588.08C385.566 2587.41 385.566 2587.41 384.585 2586.76C381.303 2584.58 378.024 2582.39 374.717 2580.25C356.009 2568.16 340.462 2554.95 326.496 2537.19C325.951 2536.49 325.422 2535.82 324.893 2535.14C310.857 2517.34 300.475 2495.69 295.462 2473.3C295.197 2472.07 295.197 2472.07 294.938 2470.87C291.468 2455.4 290.857 2440.25 291.352 2424.4C291.396 2423.21 291.439 2422.04 291.481 2420.88C292.793 2382.14 309.029 2341.52 336.615 2314.55C337.33 2313.88 338.024 2313.22 338.718 2312.57C351.961 2299.68 366.099 2289.3 382.065 2280.36C384.899 2278.78 387.714 2277.21 390.458 2275.47C395.461 2272.15 400.567 2269.07 405.755 2266.08C410.068 2263.59 414.383 2261.1 418.67 2258.57C432.779 2250.17 446.978 2241.99 461.316 2234.02C464.607 2232.2 467.896 2230.36 471.183 2228.53C472.325 2227.89 473.435 2227.26 474.544 2226.64C480.453 2223.33 486.206 2219.78 491.946 2216.16C499.091 2211.65 506.319 2207.35 513.69 2203.24C516.041 2201.94 518.389 2200.63 520.737 2199.33C521.927 2198.66 523.083 2198.02 524.237 2197.38C533.02 2192.49 541.838 2187.68 550.406 2182.39C558.335 2177.49 566.349 2172.75 574.409 2168.07C575.702 2167.33 576.956 2166.6 578.21 2165.88C583.954 2162.56 589.697 2159.24 595.479 2155.99C602.395 2152.11 609.227 2148.12 616.014 2144.01C621.134 2140.9 626.233 2137.82 631.566 2135.11C634.313 2133.72 636.901 2132.27 639.546 2130.67C648.563 2124.9 657.748 2119.48 667.021 2114.17C667.722 2113.77 668.402 2113.38 669.082 2112.99C675.262 2109.45 681.44 2105.91 687.652 2102.43C694.142 2098.81 700.548 2095.06 706.91 2091.2C716.255 2085.51 725.616 2079.87 735.111 2074.45C741.84 2070.62 748.547 2066.76 755.233 2062.84C768.764 2054.92 782.293 2046.99 795.971 2039.34C802.812 2035.53 809.544 2031.55 816.263 2027.51C824.072 2022.82 831.916 2018.23 839.881 2013.83C846.455 2010.2 852.952 2006.47 859.367 2002.55C866.884 1997.95 874.428 1993.42 882.076 1989.06C889.054 1985.08 896.014 1981.07 902.954 1977.02C904.13 1976.33 905.272 1975.66 906.414 1975C913.057 1971.12 919.696 1967.23 926.316 1963.31C930.344 1960.92 934.369 1958.53 938.443 1956.23C944.555 1952.82 950.61 1949.33 956.637 1945.76C969.835 1937.94 983.063 1930.18 996.444 1922.7C1002.02 1919.59 1007.52 1916.39 1012.99 1913.11C1021.38 1908.07 1029.79 1903.08 1038.26 1898.19C1051.58 1890.51 1064.85 1882.76 1078.08 1874.92C1086.65 1869.84 1095.24 1864.76 1103.85 1859.74C1104.66 1859.27 1105.45 1858.81 1106.23 1858.36C1110.19 1856.05 1114.15 1853.76 1118.14 1851.51C1125.94 1847.14 1133.66 1842.66 1141.37 1838.12C1147.27 1834.64 1153.14 1831.13 1159.24 1828.03C1163.13 1826.07 1166.85 1823.89 1170.57 1821.61C1172.23 1820.58 1173.9 1819.56 1175.56 1818.54C1176.45 1818 1177.32 1817.47 1178.18 1816.94C1188.42 1810.68 1198.79 1804.65 1209.2 1798.7C1215.69 1794.99 1222.14 1791.24 1228.57 1787.43C1238.51 1781.53 1248.48 1775.71 1258.5 1769.96C1259.2 1769.57 1259.87 1769.18 1260.54 1768.79C1266.61 1765.31 1272.68 1761.82 1278.79 1758.41C1283.51 1755.78 1288.18 1753.15 1292.7 1750.17C1297.05 1747.31 1301.54 1744.76 1306.09 1742.23C1314.91 1737.34 1323.66 1732.37 1332.26 1727.06C1339.04 1722.86 1345.94 1718.89 1352.9 1715.01C1354.17 1714.3 1355.41 1713.61 1356.64 1712.92C1360.25 1710.91 1363.86 1708.9 1367.47 1706.89C1368.67 1706.22 1368.67 1706.22 1369.85 1705.56C1369.92 1623.67 1369.99 1541.77 1370.07 1459.87C1370.08 1458.61 1370.08 1457.38 1370.08 1456.16C1370.11 1429.48 1370.14 1402.81 1370.17 1376.14C1370.18 1363.04 1370.19 1349.95 1370.21 1336.86C1370.21 1334.86 1370.21 1334.86 1370.21 1332.91C1370.26 1290.61 1370.3 1248.31 1370.33 1206.01C1370.37 1162.47 1370.41 1118.93 1370.46 1075.39C1370.47 1069.24 1370.48 1063.09 1370.49 1056.95C1370.49 1055.09 1370.49 1055.09 1370.49 1053.28C1370.51 1033.81 1370.53 1014.34 1370.54 994.875C1370.55 975.214 1370.57 955.552 1370.6 935.891C1370.62 924.203 1370.63 912.514 1370.63 900.826C1370.64 892.966 1370.64 885.105 1370.66 877.245C1370.67 872.759 1370.68 868.272 1370.68 863.786C1370.67 859.665 1370.67 855.543 1370.68 851.422C1370.69 849.89 1370.69 848.402 1370.7 846.915C1370.67 838.826 1370.8 831.256 1372.72 823.384C1372.92 822.656 1373.11 821.948 1373.3 821.241C1380.29 794.512 1399.74 778.518 1421.83 764.93C1427.57 761.432 1433.24 757.861 1438.87 754.179C1450.34 746.642 1461.91 739.266 1473.54 731.977C1487.03 723.526 1500.49 715.047 1513.86 706.387C1525.29 698.981 1536.79 691.703 1548.32 684.475C1554.17 680.805 1560.01 677.106 1565.84 673.392C1579.9 664.427 1593.98 655.503 1608.09 646.64C1619.73 639.34 1631.37 632.046 1642.9 624.572C1656.2 615.95 1669.51 607.352 1683 599.045C1689.72 594.91 1696.36 590.664 1702.98 586.371C1708.99 582.475 1715.02 578.621 1721.07 574.785C1723.52 573.231 1725.97 571.674 1728.42 570.117C1730.32 568.91 1730.32 568.91 1732.18 567.728C1734.68 566.141 1737.17 564.554 1739.67 562.967C1750.66 555.973 1761.66 549.011 1772.67 542.062C1784.31 534.722 1795.95 527.382 1807.56 519.994C1809.98 518.453 1812.4 516.913 1814.82 515.373C1816.1 514.559 1817.35 513.769 1818.59 512.979C1821.08 511.391 1823.58 509.804 1826.08 508.218C1832.2 504.338 1838.34 500.476 1844.41 496.497C1849.35 493.227 1854.3 489.98 1859.34 486.868C1865.05 483.357 1870.71 479.767 1876.36 476.166C1878.9 474.547 1881.44 472.929 1883.98 471.312C1887.72 468.941 1887.72 468.941 1898.95 461.8C1900.22 460.99 1901.46 460.204 1902.69 459.419C1905.19 457.833 1907.69 456.246 1910.18 454.658C1917.14 450.215 1924.1 445.777 1931.13 441.444C1938.71 436.769 1946.24 432.017 1953.75 427.209C1975.7 413.139 1997.7 399.153 2019.77 385.283C2030.64 378.453 2041.46 371.549 2052.25 364.575C2060.61 359.165 2068.98 353.767 2077.39 348.438C2079.73 346.961 2082.06 345.482 2084.39 344.002C2085.68 343.182 2086.93 342.385 2088.18 341.589C2090.68 340.002 2093.17 338.415 2095.67 336.828C2105.06 330.842 2114.47 324.897 2123.9 318.975C2132.06 313.851 2140.21 308.704 2148.34 303.528C2150.82 301.95 2153.3 300.371 2155.78 298.794C2157.01 298.009 2158.21 297.248 2159.41 296.486C2169.87 289.833 2180.33 283.177 2190.81 276.562C2202.01 269.496 2213.21 262.433 2224.34 255.232C2237.03 247.019 2249.77 238.9 2262.63 230.97C2272.14 225.105 2281.61 219.191 2290.95 213.047C2298.37 208.165 2305.86 203.413 2313.42 198.765C2319.26 195.184 2325.06 191.569 2330.77 187.76C2339.41 181.982 2347.8 176.153 2357.51 172.449C2358.58 172.089 2359.62 171.739 2360.65 171.39C2368.01 168.734 2374.98 167.617 2382.74 167.465C2383.73 167.459 2384.68 167.453 2385.64 167.447ZM3331.87 1888.26L3323.81 1900.76L3316.5 1912.66L3311.13 1921.59L3300.77 1936.86L3285.05 1961.45L3282.91 1965.03L3279.82 1969.19L3276 1972.17L3271.96 1975.74L3268.19 1979.31L3255.26 1998.35L3228.76 2044.18L3222.42 2055.04L3219.54 2059.65L3215.51 2065.82L3206.29 2078.1C3206.29 2078.1 3209.92 2080.32 3211.75 2081.42C3212.51 2081.89 3213.25 2082.34 3214 2082.79C3217.91 2085.19 3221.39 2087.35 3225.83 2088.52C3226.63 2088.62 3227.41 2088.71 3228.18 2088.81V2091.19C3230.92 2092.55 3233.56 2094.02 3236.2 2095.55C3237.54 2096.35 3238.84 2097.12 3240.14 2097.89C3243.06 2099.62 3245.99 2101.36 3248.92 2103.09C3255.32 2106.89 3261.71 2110.73 3268.19 2114.38C3272.19 2116.6 3276.18 2118.81 3280.08 2121.2C3280.96 2121.75 3281.81 2122.27 3282.66 2122.8C3284.42 2123.89 3286.19 2124.98 3287.95 2126.08C3292.17 2128.75 3295.96 2131.29 3300.77 2132.6C3301.55 2132.69 3302.31 2132.77 3303.07 2132.85V2135.23C3307.54 2137.81 3312.01 2140.37 3316.5 2142.91C3318.08 2143.8 3318.08 2143.8 3319.63 2144.68C3321.79 2145.89 3323.95 2147.11 3326.11 2148.32C3332.13 2151.67 3338.12 2155.01 3343.97 2158.66C3364.93 2171.77 3386.35 2184.14 3407.88 2196.23C3411.59 2198.3 3415.24 2200.44 3418.86 2202.7C3421.77 2204.53 3424.69 2206.34 3427.64 2208.1C3458.04 2226.02 3484.36 2247.76 3500.74 2280.49C3501.3 2281.69 3501.84 2282.85 3502.38 2284C3506.57 2292.89 3510.26 2301.82 3512.95 2311.32C3513.2 2312.25 3513.44 2313.15 3513.69 2314.06C3517.19 2327 3518.83 2339.65 3518.77 2353.08C3518.75 2355.6 3518.73 2358.12 3518.73 2360.63C3518.73 2389.43 3512.66 2419.97 3497.17 2444.44C3496.31 2445.76 3496.31 2445.76 3495.47 2447.06C3483.02 2468.61 3466.81 2485.13 3446.83 2499.19C3446.13 2499.68 3445.45 2500.15 3444.78 2500.62C3439.97 2504 3435.14 2507.34 3430.28 2510.64C3429.33 2511.28 3428.41 2511.9 3427.5 2512.52C3416.06 2520.28 3404.65 2528.08 3393.12 2535.69C3384.1 2541.63 3375.19 2547.74 3366.29 2553.88C3356.87 2560.39 3347.43 2566.86 3337.92 2573.22C3331.24 2577.69 3324.58 2582.19 3317.97 2586.76C3314.24 2589.35 3310.5 2591.93 3306.71 2594.43C3301.7 2597.7 3296.72 2600.99 3291.79 2604.39C3282.85 2610.58 3273.85 2616.69 3264.83 2622.77C3257.4 2627.77 3249.98 2632.79 3242.61 2637.88C3239.45 2640.06 3236.29 2642.23 3233.09 2644.34C3227.44 2648.01 3221.84 2651.76 3216.29 2655.6C3208.43 2661.03 3200.56 2666.42 3192.61 2671.71C3187.09 2675.39 3181.58 2679.09 3176.12 2682.87C3171.98 2685.74 3167.81 2688.57 3163.61 2691.35C3158.1 2694.99 3152.61 2698.64 3147.18 2702.4C3140.64 2706.93 3134.08 2711.41 3127.47 2715.84C3119.66 2721.07 3111.85 2726.31 3104.12 2731.67C3098.01 2735.9 3091.86 2740.05 3085.68 2744.17C3080.01 2747.94 3074.37 2751.74 3068.76 2755.62C3065.72 2757.74 3062.66 2759.83 3059.57 2761.87C3052.63 2766.4 3045.77 2771.02 3038.96 2775.74C3022.24 2787.32 3005.41 2798.73 2988.55 2810.07C2985 2812.46 2981.45 2814.85 2977.91 2817.23C2976.75 2818.01 2975.63 2818.77 2974.5 2819.52C2967.16 2824.47 2959.83 2829.43 2952.54 2834.47C2948.92 2836.98 2945.3 2839.48 2941.63 2841.9C2936.04 2845.55 2930.49 2849.25 2924.99 2853.04C2917.54 2858.2 2910.08 2863.32 2902.56 2868.36C2895.6 2873.02 2888.63 2877.68 2881.73 2882.44C2875.26 2886.92 2868.77 2891.36 2862.25 2895.75C2861.22 2896.44 2860.22 2897.11 2859.22 2897.78C2854.5 2900.95 2849.76 2904.13 2845 2907.25C2837.98 2911.84 2831.04 2916.53 2824.14 2921.31C2813.91 2928.39 2803.69 2935.45 2793.34 2942.34C2787.96 2945.91 2782.6 2949.52 2777.28 2953.2C2774.25 2955.31 2771.2 2957.39 2768.12 2959.42C2760.93 2964.11 2753.83 2968.91 2746.77 2973.8C2737.87 2979.96 2728.99 2986.16 2719.97 2992.13C2715.01 2995.4 2710.06 2998.68 2705.16 3002.06C2696.29 3008.21 2687.36 3014.26 2678.42 3020.29C2670.99 3025.3 2663.56 3030.31 2656.19 3035.4C2653.03 3037.59 2649.88 3039.75 2646.68 3041.86C2641.08 3045.5 2635.54 3049.21 2630.05 3053C2622.6 3058.15 2615.14 3063.28 2607.62 3068.31C2600.6 3073.02 2593.57 3077.71 2586.61 3082.52C2580.62 3086.67 2574.6 3090.79 2568.54 3094.85C2567.68 3095.43 2566.85 3095.98 2566.01 3096.54C2562.85 3098.66 2559.68 3100.77 2556.51 3102.87C2548.61 3108.03 2540.77 3113.27 2533.01 3118.64C2521.59 3126.55 2510.14 3134.4 2498.62 3142.14C2491.58 3146.86 2484.56 3151.6 2477.59 3156.42C2470.33 3161.45 2463.02 3166.38 2455.7 3171.3C2450.44 3174.83 2445.15 3178.33 2439.97 3181.98C2407.56 3205.18 2375.66 3217.29 2336.23 3217.49C2335.28 3217.49 2334.36 3217.49 2333.43 3217.5C2323.71 3217.55 2313.99 3217.81 2304.47 3215.47C2303.6 3215.22 2302.75 3214.98 2301.9 3214.74C2278.6 3208.41 2259.11 3198.03 2238.75 3184.97C2236.36 3183.44 2233.97 3181.91 2231.58 3180.4C2225.12 3176.31 2218.7 3172.18 2212.3 3168C2205.09 3163.27 2197.87 3158.57 2190.57 3153.98C2181.79 3148.48 2173.09 3142.87 2164.44 3137.16C2157.6 3132.65 2150.76 3128.15 2143.84 3123.77C2140.53 3121.68 2137.23 3119.58 2133.95 3117.44C2125.86 3112.09 2117.69 3106.86 2109.49 3101.67C2100.93 3096.26 2092.41 3090.79 2083.93 3085.24C2076.7 3080.5 2069.43 3075.84 2062.11 3071.25C2055.15 3066.88 2048.27 3062.39 2041.45 3057.79C2036.55 3054.48 2031.69 3051.22 2026.54 3048.34C2023.2 3046.49 2020.04 3044.5 2016.89 3042.31C2008.33 3036.32 1999.58 3030.66 1990.68 3025.2C1984.15 3021.19 1977.75 3017 1971.39 3012.71C1966.37 3009.32 1961.39 3005.98 1956.12 3003.04C1953.93 3001.88 1951.87 3000.66 1949.85 2999.19C1946.59 2996.75 1943.35 2994.4 1939.92 2992.22C1932.12 2987.5 1924.43 2982.64 1916.81 2977.63C1907.69 2971.6 1898.57 2965.6 1889.34 2959.77C1880.59 2954.26 1871.87 2948.71 1863.21 2943.05C1856 2938.32 1848.78 2933.62 1841.48 2929.04C1833.92 2924.3 1826.41 2919.49 1818.96 2914.58C1810.29 2908.85 1801.61 2903.15 1792.81 2897.63C1782.42 2891.11 1772.11 2884.45 1761.8 2877.79C1755.96 2874 1750.11 2870.23 1744.26 2866.45C1741.97 2864.97 1739.67 2863.48 1737.37 2862C1733.91 2859.77 1733.91 2859.77 1695.89 2835.22C1694.72 2834.46 1693.58 2833.72 1692.43 2832.99C1690.13 2831.5 1687.83 2830.01 1685.52 2828.52C1679.69 2824.76 1673.86 2821 1668.04 2817.23C1657.56 2810.46 1647.09 2803.66 1636.56 2796.98C1630.73 2793.29 1624.92 2789.55 1619.12 2785.81C1617.88 2785 1616.67 2784.22 1615.46 2783.44C1609.87 2779.83 1604.28 2776.22 1598.7 2772.61C1597.12 2771.59 1595.55 2770.56 1593.97 2769.54C1592.86 2768.82 1592.86 2768.82 1591.77 2768.12C1585.44 2764.02 1579.07 2760 1572.69 2755.99C1565.65 2751.58 1558.7 2747.04 1551.81 2742.38C1546.91 2739.08 1542.05 2735.82 1536.9 2732.93C1534.52 2731.63 1532.22 2730.28 1529.96 2728.77C1524.6 2725.02 1519.2 2721.36 1513.74 2717.78C1512.8 2717.16 1511.89 2716.57 1510.98 2715.97C1506.48 2713.01 1501.99 2710.03 1497.32 2707.35C1493.26 2705.07 1489.32 2702.8 1485.58 2699.99C1482.04 2697.29 1478.39 2694.9 1474.63 2692.55C1467.15 2687.91 1459.72 2683.2 1452.35 2678.38C1446.59 2674.61 1440.84 2670.81 1435.03 2667.12C1428.79 2663.17 1422.57 2659.19 1416.39 2655.15C1403.62 2646.79 1390.78 2638.56 1377.91 2630.35C1366.09 2622.82 1354.28 2615.27 1342.56 2607.59C1336.38 2603.54 1330.17 2599.54 1323.92 2595.61C1317.13 2591.36 1310.38 2587.07 1303.73 2582.6C1296.43 2577.68 1289.09 2572.84 1281.64 2568.17C1266.42 2558.62 1251.27 2548.95 1236.33 2538.96C1231.21 2535.53 1226.08 2532.16 1220.84 2528.94C1213.51 2524.44 1206.25 2519.84 1199.05 2515.13C1194.36 2512.04 1189.69 2508.94 1184.95 2505.96C1173.12 2498.6 1162.31 2491.19 1152.61 2480.97C1152.05 2480.37 1151.5 2479.78 1150.95 2479.2C1149.29 2477.46 1147.63 2475.72 1145.99 2473.96C1113.21 2437.9 1102.61 2394.78 1103.59 2346.39C1104.71 2308.89 1120.76 2269.71 1147.24 2243.61C1148.11 2242.77 1148.95 2241.96 1149.8 2241.16C1164.99 2226.19 1180.97 2215.5 1199.34 2205.03C1200.51 2204.37 1201.65 2203.72 1202.79 2203.07C1217.24 2194.83 1231.78 2186.76 1246.34 2178.72C1254.51 2174.21 1262.67 2169.67 1270.8 2165.08C1282.47 2158.49 1294.08 2151.73 1305.99 2145.61C1311.78 2142.68 1317.43 2139.55 1323.04 2136.27C1341.23 2125.63 1359.59 2115.35 1378.01 2105.13C1382.12 2102.86 1386.22 2100.57 1390.33 2098.29C1393.28 2096.64 1396.23 2095 1399.18 2093.36C1400.61 2092.56 1402.04 2091.77 1403.47 2090.97C1409.18 2087.78 1414.82 2084.44 1420.74 2081.7C1423.76 2080.41 1426.55 2079.13 1429.36 2077.38C1430.25 2076.74 1431.12 2076.12 1431.99 2075.5C1433.55 2074.39 1435.11 2073.27 1436.67 2072.15C1434.36 2069.77 1434.36 2069.77 1431.97 2068.39C1421.76 2062.96 1410.97 2057.09 1402.53 2048.9C1385.02 2030.14 1377.04 2008.26 1377.09 1982.5C1377.09 1980.47 1377.09 1978.44 1377.07 1976.41C1377.02 1971.04 1376.99 1965.68 1376.98 1960.32C1376.98 1954.77 1376.95 1949.23 1376.91 1943.69C1376.83 1932.91 1376.78 1922.12 1376.76 1911.34C1376.76 1910.17 1376.76 1909.03 1376.76 1907.9C1372.96 1907.9 1372.96 1907.9 1367.71 1911.14C1365.94 1912.23 1364.15 1913.3 1362.36 1914.35C1361.29 1914.97 1360.26 1915.57 1359.22 1916.17C1357.56 1917.14 1357.56 1917.14 1355.93 1918.1C1344.8 1924.58 1333.69 1931.09 1322.61 1937.65C1314.03 1942.75 1305.42 1947.8 1296.76 1952.75C1287.45 1958.08 1278.19 1963.47 1268.93 1968.89C1263.18 1972.25 1257.42 1975.61 1251.65 1978.96C1243.96 1983.42 1236.29 1987.92 1228.63 1992.45C1226.65 1993.62 1224.66 1994.8 1222.68 1995.97C1221.99 1996.37 1221.32 1996.77 1220.66 1997.16C1219.31 1997.95 1217.96 1998.75 1216.62 1999.54C1213.93 2001.13 1211.24 2002.72 1208.55 2004.31C1200.02 2009.41 1191.45 2014.39 1182.78 2019.23C1164.94 2029.16 1147.3 2039.44 1129.71 2049.83C1124.34 2053 1118.97 2056.15 1113.58 2059.28C1108.17 2062.41 1102.77 2065.55 1097.38 2068.71C1088.04 2074.17 1078.7 2079.64 1069.32 2085.01C1053.28 2094.19 1037.32 2103.5 1021.41 2112.91C1016.04 2116.08 1010.67 2119.23 1005.28 2122.36C999.875 2125.49 994.475 2128.63 989.082 2131.79C979.743 2137.25 970.409 2142.72 961.023 2148.09C952.469 2152.99 943.941 2157.92 935.433 2162.9C927.229 2167.7 919.016 2172.48 910.786 2177.23C895.967 2185.79 881.194 2194.42 866.489 2203.19C856.577 2209.1 846.568 2214.81 836.513 2220.46C834.952 2221.34 834.952 2221.34 833.423 2222.2C831.352 2223.36 829.28 2224.52 827.208 2225.68C821.631 2228.8 816.058 2231.89 810.61 2235.24C801.27 2241.2 791.739 2246.76 782.132 2252.24C773.526 2257.15 764.929 2262.08 756.396 2267.13C748.155 2272.02 739.901 2276.87 731.583 2281.62C725.097 2285.33 718.641 2289.08 712.21 2292.88C703.766 2297.89 695.313 2302.87 686.795 2307.73C679.993 2311.62 673.213 2315.54 666.449 2319.5C652.799 2327.48 639.146 2335.47 625.356 2343.2C620.5 2345.91 615.693 2348.66 610.973 2351.62C601.172 2357.6 601.172 2357.6 591.238 2363.34C587.456 2365.53 583.677 2367.72 579.9 2369.91C579.154 2370.34 578.43 2370.77 577.706 2371.19C570.043 2375.64 562.389 2380.11 554.736 2384.58C547.206 2388.98 539.671 2393.37 532.126 2397.74C528.198 2400.02 524.273 2402.3 520.367 2404.62C508.385 2411.74 496.36 2418.75 484.17 2425.49C476.093 2429.91 468.342 2434.52 460.84 2439.92C463.144 2443.49 463.144 2443.49 465.453 2445.2C466.455 2445.83 467.428 2446.45 468.4 2447.06C469.565 2447.81 470.695 2448.53 471.825 2449.26C475.605 2451.67 479.337 2454.16 483.065 2456.66C489.346 2460.88 495.633 2465.08 501.955 2469.23C505.995 2471.88 510.026 2474.54 514.049 2477.21C518.481 2480.16 522.913 2483.11 527.36 2486.03C538.056 2493.04 548.691 2500.15 559.301 2507.29C569.135 2513.92 578.963 2520.55 588.938 2526.95C596.215 2531.62 603.419 2536.39 610.602 2541.21C615.081 2544.21 619.569 2547.21 624.078 2550.16C633.282 2556.2 642.455 2562.28 651.589 2568.43C661.779 2575.29 671.991 2582.11 682.259 2588.84C689.961 2593.89 697.647 2598.97 705.301 2604.09C711.533 2608.27 717.777 2612.42 724.05 2616.54C726.073 2617.86 728.095 2619.19 730.116 2620.52C733.293 2622.61 736.471 2624.69 739.648 2626.78C751.037 2634.26 762.408 2641.76 773.711 2649.36C783.901 2656.22 794.114 2663.04 804.382 2669.78C812.083 2674.83 819.771 2679.9 827.424 2685.03C831.529 2687.78 835.634 2690.53 839.759 2693.25C845.231 2696.84 850.689 2700.44 856.129 2704.08C878.581 2719.1 901.101 2734.02 923.679 2748.84C932.322 2754.52 940.954 2760.21 949.546 2765.96C957.74 2771.47 965.983 2776.89 974.235 2782.3C987.59 2791.05 1000.9 2799.86 1014.15 2808.78C1025.07 2816.13 1035.98 2823.47 1047.01 2830.64C1056.36 2836.71 1065.66 2842.88 1074.91 2849.13C1081.34 2853.48 1087.78 2857.83 1094.27 2862.09C1097.52 2864.22 1100.77 2866.35 1104.01 2868.5C1111.44 2873.45 1118.88 2878.38 1126.33 2883.31C1127.58 2884.13 1128.79 2884.93 1129.99 2885.73C1136.33 2889.91 1142.66 2894.1 1148.99 2898.28C1161.66 2906.65 1174.32 2915.01 1186.94 2923.46C1192.57 2927.23 1198.21 2930.99 1203.86 2934.74C1205.81 2936.03 1207.76 2937.32 1209.71 2938.62C1229.07 2951.49 1248.45 2964.32 1267.89 2977.08C1275.57 2982.12 1283.23 2987.19 1290.86 2992.32C1294.46 2994.76 1298.05 2997.21 1301.78 2999.45C1305.03 3001.35 1308.12 3003.24 1311.16 3005.49C1315.68 3008.9 1315.68 3008.9 1327.56 3016.74C1330.19 3018.47 1332.82 3020.21 1335.45 3021.95C1353.6 3034.03 1371.79 3046.05 1390.01 3058.01C1397.69 3063.05 1405.35 3068.13 1412.98 3073.26C1416.53 3075.66 1420.05 3078.09 1423.74 3080.27C1427.19 3082.25 1430.47 3084.29 1433.67 3086.69C1437.39 3089.49 1441.23 3092.06 1445.14 3094.59C1452.96 3099.63 1460.75 3104.72 1468.48 3109.92C1469.94 3110.9 1469.94 3110.9 1471.38 3111.87C1473.31 3113.17 1475.24 3114.47 1477.18 3115.77C1488.13 3123.15 1499.08 3130.52 1510.15 3137.71C1524.71 3147.17 1539.19 3156.76 1553.48 3166.66C1558.32 3170.03 1563.21 3173.28 1568.21 3176.39C1578.71 3182.91 1589 3189.73 1599.25 3196.65C1603.66 3199.64 1608.09 3202.63 1612.52 3205.6C1613.75 3206.42 1613.75 3206.42 1614.96 3207.23C1620.44 3210.9 1625.95 3214.53 1631.5 3218.09C1638.37 3222.5 1645.18 3226.98 1651.89 3231.63C1656.76 3235.01 1661.63 3238.35 1666.58 3241.6C1669.8 3243.69 1673 3245.79 1676.2 3247.91C1694.44 3260.05 1712.72 3272.13 1731.03 3284.15C1738.71 3289.19 1746.37 3294.27 1754 3299.4C1757.6 3301.84 1761.19 3304.29 1764.92 3306.53C1768.17 3308.42 1771.26 3310.32 1774.31 3312.56C1778.82 3315.97 1778.82 3315.97 1790.71 3323.81C1793.34 3325.54 1795.96 3327.28 1798.59 3329.03C1816.74 3341.1 1834.93 3353.12 1853.15 3365.08C1860.84 3370.12 1868.49 3375.2 1876.12 3380.33C1880.31 3383.17 1884.48 3385.93 1888.84 3388.47C1892.6 3390.65 1896.11 3393.11 1899.64 3395.67C1905.28 3399.77 1910.85 3403.9 1916.95 3407.26C1919.48 3408.62 1921.85 3410.04 1924.21 3411.71C1930.42 3416.31 1936.75 3420.68 1943.19 3424.92C1944.4 3425.72 1945.58 3426.5 1946.76 3427.27C1952.97 3431.36 1959.18 3435.45 1965.4 3439.53C1982.55 3450.77 1999.71 3462.02 2016.58 3473.71C2021.59 3477.19 2026.65 3480.54 2031.82 3483.77C2038.5 3487.92 2045.14 3492.09 2051.6 3496.6C2056.85 3500.27 2062.16 3503.82 2067.51 3507.34C2068.61 3508.06 2069.68 3508.77 2070.75 3509.47C2075.22 3512.4 2079.68 3515.32 2084.15 3518.25C2098.4 3527.58 2112.61 3536.97 2126.73 3546.51C2133.69 3551.21 2140.65 3555.89 2147.65 3560.52C2150.16 3562.18 2152.68 3563.84 2155.19 3565.5C2168.17 3574.1 2181.16 3582.68 2194.17 3591.22C2201.86 3596.26 2209.52 3601.34 2217.14 3606.47C2220.75 3608.91 2224.34 3611.36 2228.06 3613.6C2231.32 3615.5 2234.4 3617.39 2237.45 3619.64C2241.97 3623.04 2241.97 3623.04 2253.85 3630.88C2256.48 3632.62 2259.11 3634.36 2261.73 3636.1C2266.97 3639.58 2272.21 3643.06 2277.45 3646.53C2278.65 3647.32 2279.81 3648.09 2280.98 3648.86C2283.46 3650.5 2285.95 3652.14 2288.43 3653.78C2294.35 3657.69 2300.28 3661.59 2306.17 3665.55C2307.15 3666.22 2308.1 3666.86 2309.05 3667.51C2310.8 3668.68 2312.54 3669.86 2314.28 3671.04C2318.73 3674.09 2323.13 3677.68 2328.39 3678.92C2329.13 3678.4 2329.85 3677.89 2330.57 3677.37C2332.92 3675.35 2332.93 3675.35 2335.3 3673.79C2336.12 3673.25 2336.92 3672.73 2337.71 3672.22C2338.64 3671.61 2339.53 3671.03 2340.43 3670.45C2341.4 3669.81 2342.35 3669.2 2343.3 3668.58C2352.88 3662.35 2362.49 3656.19 2372.17 3650.11C2386.94 3640.82 2401.59 3631.36 2416.16 3621.76C2422.85 3617.35 2429.58 3613.02 2436.34 3608.73C2438.8 3607.18 2441.25 3605.62 2443.7 3604.06C2448.28 3601.15 2452.86 3598.23 2457.45 3595.34C2466.36 3589.74 2475.25 3584.13 2484.06 3578.36C2494.62 3571.45 2505.24 3564.65 2515.92 3557.95C2527.51 3550.67 2539.08 3543.37 2550.53 3535.88C2556.73 3531.82 2562.93 3527.78 2569.18 3523.83C2572.44 3521.78 2575.68 3519.71 2578.9 3517.59C2585.28 3513.37 2591.71 3509.23 2598.19 3505.17C2607.71 3499.23 2617.19 3493.24 2626.57 3487.08C2632.57 3483.14 2638.58 3479.24 2644.65 3475.42C2653.64 3469.77 2662.59 3464.06 2671.5 3458.29C2679.22 3453.3 2686.95 3448.31 2694.69 3443.36C2703.31 3437.86 2711.92 3432.34 2720.51 3426.79C2730.03 3420.64 2739.55 3414.49 2749.12 3408.42C2758.51 3402.48 2767.87 3396.51 2777.2 3390.48C2785.81 3384.91 2794.42 3379.33 2803.09 3373.86C2819.24 3363.7 2835.34 3353.45 2851.3 3342.99C2856.9 3339.32 2862.5 3335.69 2868.2 3332.19C2876.2 3327.29 2884.07 3322.2 2891.91 3317.03C2901.03 3311.01 2910.18 3305.06 2919.42 3299.25C2921.86 3297.72 2924.29 3296.19 2926.72 3294.66C2927.62 3294.09 2928.49 3293.55 2929.36 3293C2936.72 3288.36 2944.04 3283.64 2951.32 3278.87C2956.99 3275.15 2962.66 3271.46 2968.44 3267.91C2976.44 3263.02 2984.31 3257.93 2992.15 3252.76C2998.94 3248.27 3005.73 3243.79 3012.6 3239.44C3016.36 3237.07 3020.11 3234.69 3023.84 3232.26C3031.34 3227.39 3038.87 3222.57 3046.48 3217.88C3055.13 3212.55 3063.72 3207.16 3072.22 3201.58C3078.33 3197.56 3084.45 3193.58 3090.64 3189.7C3099.42 3184.2 3108.13 3178.58 3116.79 3172.86C3124.72 3167.63 3132.67 3162.43 3140.7 3157.36C3143.06 3155.87 3145.42 3154.38 3147.78 3152.88C3151.54 3150.49 3155.3 3148.1 3159.06 3145.71C3167.36 3140.46 3175.64 3135.16 3183.89 3129.82C3192.54 3124.23 3201.19 3118.63 3209.9 3113.15C3217.77 3108.2 3225.59 3103.2 3233.37 3098.1C3240.62 3093.35 3247.92 3088.66 3255.26 3084.04C3260.67 3080.65 3266.06 3077.24 3271.39 3073.71C3275.85 3070.75 3280.35 3067.87 3284.87 3065.03C3292.08 3060.5 3299.26 3055.95 3306.38 3051.28C3315.39 3045.36 3324.46 3039.55 3333.6 3033.83C3341.91 3028.63 3350.17 3023.37 3358.37 3017.99C3363.91 3014.35 3369.47 3010.74 3375.11 3007.27C3383.12 3002.37 3391 2997.28 3398.84 2992.1C3406.84 2986.82 3414.86 2981.57 3422.96 2976.45C3425.33 2974.96 3427.69 2973.47 3430.05 2971.97C3433.81 2969.58 3437.56 2967.19 3441.32 2964.8C3450.95 2958.7 3460.55 2952.54 3470.12 2946.35C3477.53 2941.57 3484.93 2936.79 3492.37 2932.07C3496.7 2929.33 3500.99 2926.56 3505.26 2923.74C3509.72 2920.79 3514.21 2917.9 3518.73 2915.04C3523.55 2911.98 3528.35 2908.91 3533.14 2905.81C3543.96 2898.8 3554.84 2891.92 3565.75 2885.06C3577.24 2877.84 3588.69 2870.56 3600.1 2863.19C3609.1 2857.36 3618.13 2851.55 3627.17 2845.78C3632.14 2842.61 3637.11 2839.44 3642.04 2836.2C3646.9 2832.98 3651.77 2829.82 3656.74 2826.77C3664.96 2821.73 3673.05 2816.51 3681.1 2811.19C3691.48 2804.34 3701.88 2797.55 3712.46 2791.04C3721.31 2785.61 3730.03 2780.02 3738.71 2774.29C3745.5 2769.81 3752.29 2765.33 3759.16 2760.98C3762.88 2758.63 3766.59 2756.28 3770.28 2753.88C3778.25 2748.72 3786.24 2743.6 3794.28 2738.56C3803.72 2732.65 3813.13 2726.7 3822.45 2720.59C3829.47 2715.98 3836.52 2711.44 3843.62 2706.97C3853.2 2700.95 3862.71 2694.83 3872.21 2688.67C3880.85 2683.07 3889.49 2677.48 3898.2 2672C3906.41 2666.84 3914.57 2661.63 3922.68 2656.31C3928.69 2652.38 3934.7 2648.47 3940.76 2644.64C3944.93 2642 3949.09 2639.33 3953.22 2636.62C3961.68 2631.06 3970.16 2625.54 3978.77 2620.23C3987.14 2615.08 3995.47 2609.87 4003.69 2604.47C4011.89 2599.08 4020.14 2593.78 4028.43 2588.53C4036.31 2583.54 4044.21 2578.58 4051.97 2573.39C4057.68 2569.55 4063.43 2565.82 4069.29 2562.21C4083.31 2553.59 4097.17 2544.68 4110.95 2535.64C4118.23 2530.86 4125.54 2526.14 4132.96 2521.57C4143.42 2515.15 4153.73 2508.52 4163.98 2501.75C4169.69 2497.97 4175.41 2494.23 4181.19 2490.58C4184.49 2488.49 4187.8 2486.39 4191.07 2484.25C4199.84 2478.46 4208.64 2472.74 4217.57 2467.23C4225.35 2462.46 4233.1 2457.64 4240.72 2452.59C4241.61 2452 4242.47 2451.43 4243.33 2450.86C4248.48 2447.44 4253.45 2443.98 4258.16 2439.92C4242.15 2429.66 4226.03 2419.58 4209.7 2409.87C4201.13 2404.77 4192.61 2399.6 4184.11 2394.39C4183.41 2393.96 4182.73 2393.55 4182.05 2393.13C4176.09 2389.48 4170.12 2385.82 4164.17 2382.14C4157.7 2378.12 4151.22 2374.14 4144.72 2370.17C4134.87 2364.15 4125.03 2358.13 4115.22 2352.03C4106.79 2346.78 4098.33 2341.6 4089.81 2336.52C4084.54 2333.4 4079.29 2330.25 4074.08 2327.02C4068.59 2323.6 4063.08 2320.22 4057.57 2316.85C4055.62 2315.66 4053.67 2314.46 4051.72 2313.27C4049.64 2312 4047.55 2310.72 4045.47 2309.44C4040.56 2306.44 4035.65 2303.44 4030.74 2300.43C4028.71 2299.19 4026.69 2297.95 4024.66 2296.71C4023.33 2295.89 4022.01 2295.08 4020.68 2294.27C4012.96 2289.54 4005.23 2284.81 3997.49 2280.12C3992.52 2277.12 3987.55 2274.11 3982.64 2271C3969.97 2262.88 3969.97 2262.88 3943.16 2246.61C3941.46 2245.58 3939.76 2244.55 3938.06 2243.52C3937.24 2243.02 3936.44 2242.53 3935.64 2242.05C3930.4 2238.87 3925.17 2235.67 3919.96 2232.43C3912.61 2227.84 3905.21 2223.35 3897.77 2218.91C3892.37 2215.71 3886.99 2212.49 3881.66 2209.17C3876.18 2205.76 3870.68 2202.39 3865.17 2199.02C3863.22 2197.83 3861.27 2196.63 3859.32 2195.44C3857.24 2194.17 3855.15 2192.89 3853.07 2191.61C3848.16 2188.61 3843.25 2185.61 3838.34 2182.6C3827.3 2175.84 3816.27 2169.07 3805.2 2162.35C3795.63 2156.55 3786.09 2150.67 3776.58 2144.75C3765.3 2137.72 3754.01 2130.71 3742.6 2123.92C3735.01 2119.41 3727.48 2114.82 3719.99 2110.16C3713.74 2106.27 3707.49 2102.4 3701.2 2098.58C3693.27 2093.79 3685.38 2088.94 3677.5 2084.05C3670.3 2079.57 3663.08 2075.13 3655.83 2070.73C3650.53 2067.53 3645.25 2064.31 3640 2061.03C3632.65 2056.45 3625.25 2051.96 3617.81 2047.52C3611.41 2043.72 3605.05 2039.88 3598.73 2035.94C3583.44 2026.42 3568.15 2016.92 3552.71 2007.65C3544.18 2002.53 3535.68 1997.36 3527.22 1992.11C3521.1 1988.3 3514.98 1984.5 3508.81 1980.76C3501.87 1976.56 3494.95 1972.33 3488.05 1968.05C3479.25 1962.58 3470.43 1957.14 3461.57 1951.77C3455.9 1948.34 3450.25 1944.89 3444.6 1941.44C3437.57 1937.14 3430.54 1932.84 3423.49 1928.57C3414.81 1923.32 3406.16 1918.02 3397.54 1912.66C3390.29 1908.15 3383.03 1903.68 3375.72 1899.27C3371.88 1896.95 3368.03 1894.64 3364.25 1892.22C3363.53 1891.75 3362.83 1891.3 3362.13 1890.85C3360.81 1889.99 3359.48 1889.12 3358.15 1888.26C3354.63 1885.93 3347.62 1882.66 3347.58 1882.64L3344.54 1881.71V1879.33H3341.09L3331.87 1888.26ZM4035.98 2799.56C4033.07 2799.12 4033.07 2799.12 4027.45 2802.85C4025.85 2803.96 4024.23 2805.06 4022.61 2806.14C4021.76 2806.71 4020.93 2807.26 4020.1 2807.82C4017.13 2809.83 4014.15 2811.81 4011.12 2813.73C4006.47 2816.66 4001.82 2819.59 3997.22 2822.61C3991.69 2826.28 3986.13 2829.89 3980.52 2833.42C3964.33 2843.61 3948.21 2853.92 3932.14 2864.31C3922.92 2870.27 3913.69 2876.23 3904.4 2882.08C3889.03 2891.74 3873.73 2901.52 3858.53 2911.46C3849.36 2917.45 3840.16 2923.37 3830.89 2929.19C3820.97 2935.42 3811.09 2941.7 3801.29 2948.13C3795.62 2951.85 3789.94 2955.54 3784.17 2959.08C3776.17 2963.98 3768.3 2969.07 3760.46 2974.24C3752.44 2979.54 3744.4 2984.79 3736.28 2989.92C3726.86 2995.86 3717.47 3001.86 3708.12 3007.91C3698.68 3014.01 3689.25 3020.11 3679.74 3026.09C3663.42 3036.36 3647.19 3046.79 3630.99 3057.26C3625.21 3060.99 3619.44 3064.74 3613.64 3068.43C3612.49 3069.16 3611.37 3069.87 3610.25 3070.57C3606.75 3073.03 3603.6 3075.02 3599.61 3076.52C3591.42 3079.49 3584.28 3083.07 3577.85 3089.19C3570.95 3097.92 3570.95 3097.92 3572.04 3139.86C3572.22 3146.1 3572.27 3152.33 3572.28 3158.58C3572.28 3169.33 3572.37 3180.09 3572.58 3190.84C3572.77 3200.73 3572.87 3210.61 3572.86 3220.5C3572.85 3222.12 3572.85 3223.69 3572.85 3225.26C3572.84 3229.24 3572.83 3233.22 3572.82 3237.2C3572.82 3238.01 3572.81 3238.8 3572.81 3239.58C3581.8 3244.49 3590.75 3249.44 3599.6 3254.61C3603.67 3256.99 3607.75 3259.38 3611.86 3261.7C3622.09 3267.43 3632.25 3273.29 3642.34 3279.28C3654.36 3286.44 3666.43 3293.45 3678.66 3300.21C3688.33 3305.55 3697.93 3310.98 3707.46 3316.57C3716.79 3322.06 3726.15 3327.46 3735.57 3332.79C3742.99 3336.99 3750.4 3341.2 3757.76 3345.51C3768.36 3351.72 3779.04 3357.75 3789.76 3363.73C3794.26 3366.24 3798.75 3368.75 3803.25 3371.26C3804.4 3371.9 3805.51 3372.53 3806.62 3373.15C3809.53 3374.78 3812.41 3376.44 3815.26 3378.19C3826.35 3385.19 3826.36 3385.19 3858.17 3403.09C3862.86 3405.72 3867.56 3408.32 3872.2 3411.04C3876.8 3413.77 3881.43 3416.44 3886.08 3419.07C3893.5 3423.27 3900.92 3427.48 3908.3 3431.77C3920.89 3439.11 3933.52 3446.39 3946.2 3453.58C3953.32 3457.61 3960.47 3461.61 3967.52 3465.78C3977.69 3471.84 3987.96 3477.66 3998.27 3483.45C4003.67 3486.48 4009.06 3489.52 4014.44 3492.58C4015.46 3493.16 4016.46 3493.72 4017.45 3494.29C4021.63 3496.66 4025.82 3499.02 4029.97 3501.46C4034.42 3504.1 4038.89 3506.68 4043.39 3509.23C4052.27 3514.25 4061.13 3519.31 4069.97 3524.42C4071.23 3525.15 4072.46 3525.86 4073.69 3526.57C4079.32 3529.83 4084.96 3533.09 4090.57 3536.38C4098.91 3541.3 4107.26 3546.07 4115.88 3550.45C4120.79 3552.89 4125.53 3555.47 4130.19 3558.38C4135.23 3561.54 4140.32 3564.59 4145.45 3567.59C4146.56 3568.24 4147.64 3568.87 4148.72 3569.49C4158.25 3575.05 4167.82 3580.55 4177.43 3585.99C4182.77 3589.01 4188.1 3592.05 4193.42 3595.11C4200.79 3599.36 4208.18 3603.57 4215.59 3607.73C4225.73 3613.41 4235.82 3619.18 4245.85 3625.06C4255.16 3630.53 4264.53 3635.9 4273.96 3641.15C4278.97 3643.93 4283.93 3646.79 4288.86 3649.72C4298.9 3655.68 4308.96 3661.59 4319.13 3667.32C4320.39 3668.03 4321.61 3668.71 4322.83 3669.4C4324.63 3670.41 4324.63 3670.41 4326.39 3671.4C4327.53 3672.04 4328.63 3672.66 4329.74 3673.27C4333.57 3675.42 4337.18 3677.08 4341.26 3678.77V2965.84C4334.92 2963.83 4334.92 2963.83 4331.39 2961.95C4330.39 2961.38 4329.41 2960.82 4328.44 2960.26C4325.08 2958.32 4321.74 2956.36 4318.43 2954.33C4310.47 2949.44 4302.36 2945.04 4294.06 2940.81C4282.06 2934.73 4270.13 2928.56 4258.5 2921.75C4250.92 2917.31 4243.39 2912.81 4235.55 2908.85C4229.15 2905.62 4222.92 2902.09 4216.69 2898.51C4210.99 2895.23 4205.3 2892 4199.45 2889.01C4195.1 2886.79 4190.82 2884.45 4186.58 2882C4175.89 2875.83 4165.1 2869.87 4154.27 2863.97C4150.87 2862.11 4147.47 2860.25 4144.06 2858.4C4143.19 2857.92 4142.35 2857.46 4141.51 2857C4130.05 2850.75 4118.63 2844.43 4107.22 2838.1C4102.41 2835.44 4097.61 2832.78 4092.8 2830.12C4091.33 2829.31 4089.86 2828.49 4088.4 2827.68C4086.25 2826.5 4084.11 2825.31 4081.97 2824.13C4075.84 2820.74 4069.71 2817.37 4063.62 2813.93C4059.03 2811.33 4054.44 2808.73 4049.78 2806.25C4048.44 2805.55 4047.13 2804.87 4045.82 2804.19C4042.57 2802.49 4039.41 2800.82 4035.98 2799.56ZM758.765 2809.84C754.7 2808.71 752.534 2808.38 748.574 2809.99C747.403 2810.71 746.265 2811.4 745.128 2812.09C743.124 2813.27 743.124 2813.27 741.16 2814.44C737.485 2816.64 733.761 2818.72 730.001 2820.77C728.398 2821.64 726.796 2822.51 725.195 2823.39C723.549 2824.29 721.903 2825.19 720.256 2826.09C718.538 2827.03 716.821 2827.97 715.104 2828.91C701.001 2836.61 686.913 2844.35 672.756 2851.95C660.658 2858.44 648.589 2864.96 636.642 2871.74C625.8 2877.88 614.865 2883.83 603.888 2889.71C597.773 2892.99 591.679 2896.31 585.589 2899.63C581.333 2901.96 577.08 2904.29 572.77 2906.51C567.174 2909.37 561.656 2912.33 556.2 2915.46C539.157 2925.3 521.873 2934.67 504.366 2943.59C499.344 2946.15 494.455 2948.83 489.677 2951.85C487.984 2952.94 486.281 2954.01 484.564 2955.05C483.242 2955.63 481.959 2956.2 480.676 2956.76C479.256 2957.39 477.878 2958.01 476.5 2958.62C472.503 2959.83 469.3 2961.23 465.717 2963.45C460.643 2969.29 460.643 2969.29 460.948 2990.74C460.991 2993.6 461.009 2996.46 461.003 2999.32C460.961 3006.39 460.947 3013.45 461.005 3020.51C461.088 3029.98 461.116 3039.45 461.105 3048.92C461.085 3064.84 461.116 3080.77 461.197 3096.7C461.279 3112.55 461.344 3128.4 461.36 3144.25C461.362 3145.76 461.362 3145.76 461.363 3147.23C461.368 3152.23 461.372 3157.23 461.376 3162.23C461.404 3197.64 461.49 3233.05 461.62 3268.45C461.747 3302.92 461.851 3337.38 461.91 3371.84C461.912 3372.94 461.913 3374 461.915 3375.06C461.933 3385.74 461.952 3396.42 461.969 3407.1C462.004 3428.88 462.042 3450.66 462.083 3472.44C462.085 3473.48 462.087 3474.48 462.089 3475.48C462.218 3543.22 462.438 3610.96 462.675 3678.69C465.228 3678.69 465.228 3678.69 471.557 3675.01C478.592 3670.87 485.654 3666.79 492.829 3662.91C501.506 3658.23 510.046 3653.34 518.552 3648.34C525.417 3644.31 532.283 3640.29 539.278 3636.5C547.659 3631.98 555.917 3627.29 564.132 3622.46C573.574 3616.9 583.075 3611.48 592.646 3606.17C597.95 3603.24 603.269 3600.35 608.436 3597.17C614.478 3593.36 620.584 3589.82 626.869 3586.45C638.72 3580.16 650.608 3573.94 662.011 3566.81C666.903 3563.74 671.868 3560.85 676.893 3558.02C677.97 3557.42 679.016 3556.84 680.062 3556.25C685.912 3552.97 691.762 3549.68 697.649 3546.47C706.223 3541.79 714.69 3536.95 723.121 3532C732.008 3526.79 740.927 3521.64 749.907 3516.6C756.721 3512.78 763.53 3508.95 770.309 3505.06C771.182 3504.56 772.03 3504.07 772.878 3503.59C777.104 3501.16 781.328 3498.73 785.549 3496.29C793.914 3491.45 802.276 3486.62 810.766 3482.03C818.106 3478.06 825.37 3473.98 832.573 3469.75C844.735 3462.6 856.979 3455.63 869.316 3448.8C878.122 3443.93 886.992 3439.16 895.618 3433.96C905.371 3427.98 915.319 3422.4 925.283 3416.81C928.486 3415.01 931.686 3413.22 934.884 3411.42C939.522 3408.8 944.161 3406.18 948.825 3403.61C954.238 3400.64 959.646 3397.66 965.049 3394.67C966.656 3393.78 966.655 3393.78 968.23 3392.9C971.093 3391.3 973.914 3389.66 976.7 3387.92C982.77 3384.12 988.896 3380.48 995.132 3376.98C997.26 3375.79 999.387 3374.6 1001.51 3373.41C1002.6 3372.8 1003.65 3372.21 1004.7 3371.62C1007.93 3369.81 1011.16 3368 1014.39 3366.18C1019.02 3363.57 1023.66 3360.95 1028.32 3358.38C1031.87 3356.43 1035.42 3354.48 1038.97 3352.52C1039.67 3352.14 1040.35 3351.76 1041.03 3351.39C1042.28 3350.7 1043.49 3350.03 1044.71 3349.36C1045.83 3348.74 1046.92 3348.13 1048.01 3347.52C1049.93 3346.46 1051.82 3345.37 1053.7 3344.25C1058.96 3340.49 1064.34 3337.38 1070.02 3334.34C1082.03 3327.97 1094.07 3321.67 1105.62 3314.46C1110.29 3311.53 1115.02 3308.76 1119.81 3306.06C1120.84 3305.49 1121.83 3304.93 1122.83 3304.38C1132.68 3298.85 1142.55 3293.35 1152.42 3287.86C1156.02 3285.87 1159.61 3283.87 1163.21 3281.87C1164.36 3281.23 1165.49 3280.6 1166.61 3279.98C1172.83 3276.53 1179.01 3273.04 1185.05 3269.26C1190.01 3266.16 1195.04 3263.22 1200.13 3260.35C1201.22 3259.74 1202.27 3259.14 1203.33 3258.55C1210.21 3254.68 1217.1 3250.86 1224.14 3247.32C1225.13 3246.84 1226.09 3246.38 1227.05 3245.91C1228.05 3245.35 1229.01 3244.81 1229.97 3244.27C1232.29 3243.18 1234.25 3242.03 1236.31 3240.47C1238.94 3237.19 1238.94 3237.19 1238.77 3228.02C1238.67 3225.9 1238.67 3225.9 1238.57 3223.83C1238.48 3220.01 1238.4 3216.19 1238.27 3212.37C1238.1 3207.43 1237.99 3202.49 1237.94 3197.54C1237.93 3196.69 1237.92 3195.86 1237.92 3195.03C1237.9 3193.34 1237.89 3191.65 1237.87 3189.96C1237.84 3185.7 1237.78 3181.44 1237.72 3177.19C1237.63 3171.11 1237.54 3165.02 1237.46 3158.94C1237.42 3155.45 1237.37 3151.95 1237.32 3148.46C1237.3 3146.8 1237.27 3145.15 1237.25 3143.5C1237.23 3141.9 1237.21 3140.3 1237.19 3138.71C1237.17 3137.22 1237.15 3135.78 1237.12 3134.34C1237.09 3132.1 1237.03 3129.86 1236.89 3127.63C1235.73 3126.44 1235.73 3126.44 1233.54 3124.96C1227.72 3121.18 1221.93 3117.36 1216.16 3113.51C1215.33 3112.95 1214.51 3112.4 1213.7 3111.86C1209.49 3109.05 1205.29 3106.23 1201.09 3103.42C1191.16 3096.76 1181.21 3090.15 1171.22 3083.59C1161.93 3077.5 1152.67 3071.35 1143.43 3065.17C1138.52 3061.88 1133.6 3058.6 1128.68 3055.34C1126.73 3054.04 1124.78 3052.75 1122.83 3051.46C1114.41 3045.85 1105.98 3040.27 1097.53 3034.72C1088.85 3029.02 1080.18 3023.32 1071.56 3017.54C1064.1 3012.53 1056.6 3007.59 1049.09 3002.66C1041.44 2997.64 1033.8 2992.59 1026.2 2987.48C1020.76 2983.83 1015.31 2980.23 1009.8 2976.7C1003.9 2972.92 998.024 2969.11 992.257 2965.12C982.494 2958.32 972.586 2951.78 962.646 2945.27C956.661 2941.35 950.687 2937.42 944.718 2933.47C943.458 2932.64 942.235 2931.83 941.012 2931.02C932.718 2925.54 924.433 2920.04 916.17 2914.51C909.041 2909.73 901.889 2905 894.712 2900.3C888.333 2896.13 881.969 2891.93 875.632 2887.68C867.577 2882.29 859.506 2876.92 851.421 2871.57C850.129 2870.72 848.874 2869.89 847.62 2869.06C841.872 2865.26 836.124 2861.46 830.364 2857.68C824.326 2853.71 818.308 2849.73 812.315 2845.69C805.284 2840.95 798.254 2836.22 791.167 2831.57C787.164 2828.95 783.167 2826.32 779.178 2823.67C778.456 2823.2 777.755 2822.73 777.054 2822.27C772.425 2819.21 767.869 2816.08 763.373 2812.82C761.141 2811.15 761.141 2811.15 758.765 2809.84ZM3241.32 895.033C3238.76 895.033 3238.76 895.033 3234.25 898.416C3232.88 899.465 3231.49 900.508 3230.11 901.546C3229.33 902.125 3228.58 902.686 3227.83 903.248C3223.51 906.478 3219.17 909.661 3214.81 912.824C3213.83 913.528 3212.89 914.211 3211.94 914.895C3203.8 920.784 3195.61 926.602 3187.39 932.376C3172.16 943.068 3157.05 953.933 3141.98 964.855C3140.51 965.923 3140.51 965.923 3139.06 966.97C3138.09 967.677 3137.14 968.363 3136.19 969.049C3128.69 974.485 3121.15 979.861 3113.58 985.191C3108.05 989.085 3102.54 992.992 3097.1 997.03C3090.84 1001.7 3084.52 1006.26 3078.13 1010.75C3065.96 1019.3 3053.84 1027.93 3041.76 1036.63C3036.23 1040.61 3030.69 1044.6 3025.15 1048.58C3022.96 1050.15 3020.76 1051.73 3018.57 1053.31C3014.06 1056.55 3009.55 1059.79 3005.04 1063.02C3003.82 1063.9 3002.63 1064.76 3001.45 1065.61C2999.1 1067.29 2996.76 1068.98 2994.41 1070.66C2989.31 1074.33 2984.21 1077.99 2979.12 1081.67C2973.82 1085.52 2968.49 1089.34 2963.13 1093.11C2951.7 1101.16 2940.33 1109.3 2928.98 1117.48C2923.4 1121.49 2917.82 1125.5 2912.24 1129.51C2905.56 1134.31 2898.88 1139.12 2892.19 1143.92C2878.2 1153.98 2864.21 1164.07 2850.15 1174.04C2838.81 1182.09 2827.5 1190.19 2816.21 1198.32C2812.77 1200.79 2809.32 1203.27 2805.88 1205.74C2803.64 1207.35 2801.39 1208.96 2799.15 1210.57C2797.47 1211.78 2797.47 1211.78 2795.82 1212.97C2789.37 1217.6 2782.92 1222.24 2776.49 1226.91C2768.43 1232.75 2760.4 1238.61 2752.18 1244.21C2747.9 1247.13 2743.72 1250.15 2739.58 1253.29C2736.48 1255.64 2733.38 1257.95 2730.19 1260.17C2722.84 1265.18 2715.6 1270.3 2708.4 1275.53C2701.64 1280.44 2694.85 1285.32 2688.01 1290.13C2682.64 1293.9 2677.25 1297.66 2671.96 1301.57C2671.12 1302.21 2670.3 1302.83 2669.48 1303.44C2667.81 1304.69 2666.14 1305.95 2664.48 1307.22C2659.87 1310.89 2655.44 1314.35 2650.15 1316.94C2642.27 1320.56 2634.79 1324.24 2628.49 1330.43C2622.21 1340.39 2622.21 1340.39 2625.56 1376.14C2627.55 1404.75 2627.55 1404.75 2628.26 1433.42C2628.33 1435.98 2628.41 1438.54 2628.48 1441.09C2629.26 1467.57 2629.88 1494.04 2630.26 1520.52C2630.48 1535.97 2630.85 1551.39 2631.56 1566.83C2631.8 1572.14 2632.04 1577.45 2632.27 1582.77C2632.31 1583.82 2632.35 1584.84 2632.4 1585.86C2633.59 1613.82 2634.53 1641.79 2635.31 1669.77C2635.88 1690.07 2636.49 1710.38 2637.23 1730.68C2637.27 1731.76 2637.3 1732.8 2637.34 1733.85C2637.53 1739.14 2637.73 1744.43 2637.92 1749.73C2638.94 1777.64 2640.03 1805.54 2640.52 1833.47C2641.58 1896.01 2644.13 1958.49 2646.84 2020.97C2649.77 2020.97 2649.77 2020.97 2665.92 2009.81C2675.62 2003.1 2685.41 1996.52 2695.19 1989.93C2700.83 1986.14 2706.47 1982.35 2712.1 1978.55C2714.29 1977.08 2716.48 1975.6 2718.67 1974.13C2723.17 1971.09 2727.67 1968.06 2732.17 1965.02C2733.39 1964.2 2734.57 1963.41 2735.75 1962.61C2738.08 1961.04 2740.42 1959.46 2742.75 1957.89C2747.97 1954.36 2753.18 1950.84 2758.43 1947.39C2763.7 1943.93 2768.96 1940.47 2774.13 1936.87C2779.78 1932.91 2785.48 1929.04 2791.29 1925.34C2799.83 1919.9 2808.22 1914.24 2816.56 1908.47C2829.28 1899.68 2842.04 1890.96 2854.87 1882.34C2857.98 1880.26 2861.09 1878.17 2864.19 1876.08C2871.63 1871.08 2879.07 1866.07 2886.53 1861.09C2898.65 1853.01 2910.73 1844.87 2922.79 1836.69C2930.42 1831.51 2938.06 1826.36 2945.74 1821.27C2949.83 1818.56 2953.92 1815.85 2957.96 1813.06C2966.98 1806.79 2976.07 1800.65 2985.2 1794.56C2992.52 1789.69 2999.82 1784.81 3007.13 1779.92C3008.02 1779.32 3008.88 1778.74 3009.75 1778.17C3019.59 1771.58 3029.45 1765.02 3039.2 1758.29C3049.28 1751.31 3059.44 1744.46 3069.61 1737.62C3074.19 1734.54 3078.77 1731.45 3083.35 1728.37C3098.8 1717.95 3114.19 1707.45 3129.75 1697.22C3134.87 1693.88 3139.95 1690.49 3144.99 1687.02C3151.14 1682.76 3157.31 1678.52 3163.56 1674.39C3169.79 1670.27 3176 1666.13 3182.21 1661.96C3183.99 1660.76 3183.99 1660.76 3185.73 1659.59C3191.1 1656 3196.49 1652.45 3201.68 1648.6C3205.38 1645.84 3208.94 1643.13 3213.04 1641.04C3218.8 1638.41 3224.15 1635.75 3229.05 1631.6C3233.1 1626.9 3233.1 1626.9 3232.62 1614.97C3232.07 1605 3232.15 1595.12 3232.4 1585.14C3232.55 1579.31 3232.69 1573.48 3232.82 1567.65C3232.85 1566.33 3232.88 1565.06 3232.91 1563.78C3233.29 1546.67 3233.55 1529.56 3233.8 1512.44C3233.82 1511.19 3233.82 1511.19 3233.83 1509.97C3233.99 1498.78 3234.15 1487.58 3234.3 1476.39C3234.36 1471.84 3234.42 1467.3 3234.49 1462.75C3235.21 1410.26 3235.79 1357.76 3236.18 1305.27C3236.19 1303.73 3236.2 1302.24 3236.21 1300.74C3236.23 1297.74 3236.25 1294.74 3236.28 1291.73C3236.5 1260.45 3236.71 1229.16 3237.22 1197.88C3237.24 1196.43 3237.27 1195.03 3237.29 1193.63C3237.47 1182.32 3237.67 1171.02 3237.98 1159.72C3239.07 1121.69 3239.58 1083.65 3240.09 1045.6C3240.18 1038.97 3240.27 1032.33 3240.36 1025.7C3240.98 982.141 3241.53 938.595 3241.32 895.033Z" fill="#FEFEFE"></path>
</svg><style>@media (prefers-color-scheme: light) { :root { filter: contrast(1) brightness(0.1); } }
@media (prefers-color-scheme: dark) { :root { filter: contrast(1) brightness(1); } }
</style></svg>