<svg width="60" height="61" viewBox="0 0 60 61" fill="none" xmlns="http://www.w3.org/2000/svg">
<path fill-rule="evenodd" clip-rule="evenodd" d="M56 31C56 45.3594 44.3594 57 30 57C23.8968 57 18.2848 54.8971 13.849 51.3764L11.0043 54.2211C16.1773 58.4578 22.7918 61 30 61C46.5685 61 60 47.5685 60 31C60 23.7918 57.4578 17.1773 53.2211 12.0043L50.3764 14.849C53.8971 19.2848 56 24.8968 56 31ZM50.4855 9.08307L47.6552 11.9133C43.0186 7.62245 36.8156 5 30 5C15.6406 5 4 16.6406 4 31C4 37.8156 6.62245 44.0186 10.9133 48.6552L8.08307 51.4855C3.06918 46.1235 0 38.9202 0 31C0 14.4315 13.4315 1 30 1C37.9202 1 45.1235 4.06918 50.4855 9.08307Z" fill="#D9D9D9"/>
<rect x="56.5685" width="4" height="80" rx="2" transform="rotate(45 56.5685 0)" fill="#D9D9D9"/>
</svg>
