<svg width="512" height="512" viewBox="0 0 512 512" fill="none" xmlns="http://www.w3.org/2000/svg">
<path d="M54.6172 31.6094C56.4357 31.6179 56.4357 31.6179 58.2909 31.6266C62.1527 31.6489 66.0135 31.6991 69.8751 31.75C72.4974 31.7701 75.1198 31.7884 77.7422 31.8047C84.1618 31.8488 90.5809 31.9157 97.0001 32C97.3782 33.125 97.7562 34.2499 98.1458 35.409C99.5544 39.5949 100.971 43.7782 102.389 47.9607C103.002 49.769 103.612 51.5779 104.22 53.3875C105.095 55.9933 105.979 58.5965 106.863 61.1993C107.267 62.4074 107.267 62.4074 107.678 63.6399C110.161 71.0588 110.161 71.0588 115.313 76.75C120.84 79.321 126.657 79.1487 132.632 79.1453C133.902 79.1504 133.902 79.1504 135.197 79.1555C137.983 79.165 140.769 79.1669 143.555 79.168C145.5 79.1712 147.445 79.1746 149.39 79.1781C153.464 79.1841 157.537 79.1859 161.611 79.1854C166.818 79.1853 172.025 79.1989 177.233 79.2161C181.249 79.2273 185.266 79.2293 189.283 79.2287C191.202 79.2299 193.121 79.2343 195.04 79.2421C197.73 79.2519 200.419 79.249 203.109 79.243C204.286 79.2514 204.286 79.2514 205.487 79.26C211.769 79.2245 217.719 78.7762 222.824 74.8008C229.397 66.3397 231.852 53.4969 235.199 43.4258C235.566 42.3226 235.934 41.2194 236.312 40.0827C237.209 37.3886 238.105 34.6944 239 32C246.723 31.8985 254.446 31.8285 262.169 31.7803C264.796 31.7602 267.422 31.7329 270.049 31.6983C273.827 31.6497 277.605 31.6271 281.383 31.6094C282.555 31.5888 283.727 31.5681 284.935 31.5469C295.334 31.544 295.334 31.544 300 36C303.792 40.6993 304.572 44.3564 304.481 50.2384C304.484 51.0521 304.488 51.8658 304.491 52.7041C304.498 55.4221 304.476 58.1391 304.454 60.857C304.453 62.8086 304.454 64.7602 304.456 66.7118C304.457 72.0048 304.434 77.2974 304.406 82.5904C304.381 88.1237 304.378 93.657 304.374 99.1904C304.361 109.666 304.328 120.142 304.288 130.618C304.243 142.545 304.221 154.473 304.201 166.4C304.16 190.933 304.089 215.467 304 240C303.152 240.005 303.152 240.005 302.287 240.01C288.48 240.092 274.672 240.184 260.865 240.288C254.187 240.338 247.51 240.384 240.832 240.422C234.381 240.459 227.929 240.505 221.478 240.558C219.024 240.577 216.57 240.592 214.117 240.603C183.548 240.502 183.548 240.502 158.059 255.879C146.473 268.265 144.887 283.102 144.795 299.303C144.785 300.397 144.775 301.49 144.765 302.617C144.733 306.205 144.708 309.792 144.684 313.379C144.663 315.877 144.642 318.375 144.621 320.874C144.571 326.759 144.526 332.645 144.483 338.531C144.428 345.896 144.367 353.262 144.307 360.627C144.199 373.751 144.098 386.876 144 400C130.805 400.093 117.609 400.164 104.413 400.207C98.2861 400.228 92.159 400.256 86.0318 400.302C80.1185 400.345 74.2054 400.369 68.2919 400.38C66.036 400.387 63.7802 400.401 61.5244 400.423C58.3642 400.452 55.2048 400.456 52.0445 400.454C51.1123 400.469 50.1801 400.483 49.2196 400.498C43.6553 400.462 40.3122 399.859 36.0001 396C30.5986 390.228 31.4398 383.628 31.4921 376.107C31.4875 374.671 31.4812 373.235 31.4732 371.798C31.4565 367.856 31.4648 363.913 31.4772 359.971C31.4862 355.717 31.4722 351.463 31.4612 347.21C31.4434 338.879 31.4473 330.548 31.4589 322.216C31.4679 315.446 31.4691 308.676 31.4648 301.905C31.4642 300.942 31.4636 299.979 31.4629 298.986C31.4617 297.029 31.4604 295.072 31.459 293.116C31.4476 274.763 31.4608 256.41 31.4822 238.057C31.5001 222.306 31.497 206.555 31.4786 190.805C31.4572 172.518 31.4487 154.231 31.461 135.944C31.4623 133.994 31.4636 132.045 31.4648 130.095C31.4654 129.136 31.466 128.176 31.4667 127.188C31.4701 120.425 31.4643 113.662 31.4549 106.899C31.4437 98.6584 31.4467 90.4177 31.468 82.1769C31.4785 77.9716 31.4826 73.7665 31.4694 69.5612C31.4575 65.712 31.464 61.8634 31.4853 58.0143C31.4898 56.6214 31.4875 55.2284 31.4778 53.8356C31.395 40.9448 31.395 40.9448 36.0001 36C41.487 30.7602 47.4728 31.4836 54.6172 31.6094ZM98.5001 130.438C97.5822 131.36 96.6644 132.282 95.7188 133.232C93.4769 135.486 91.2374 137.742 89.0001 140C85.618 138.408 83.4665 136.652 80.8751 133.938C77.1979 130.005 77.1979 130.005 72.1251 128.688C68.9548 128.752 68.9548 128.752 66.6251 130.625C64.8496 132.925 64.8496 132.925 64.3126 135.75C65.3754 140.774 68.4483 143.424 72.0001 147C72.9482 147.974 73.8961 148.948 74.8438 149.922C80.3521 156.143 80.3521 156.143 87.6251 159.5C96.5466 158.178 104.857 146.295 111.084 140.046C112.954 138.171 114.829 136.301 116.705 134.432C117.896 133.24 119.087 132.048 120.277 130.856C120.838 130.297 121.398 129.739 121.975 129.164C125.923 125.29 125.923 125.29 127.313 120.125C127.248 116.955 127.248 116.955 125.375 114.625C123.075 112.85 123.075 112.85 120.25 112.313C111.703 114.121 104.433 124.449 98.5001 130.438ZM98.5001 226.438C97.5822 227.36 96.6644 228.282 95.7188 229.232C93.4769 231.486 91.2374 233.742 89.0001 236C85.618 234.408 83.4665 232.652 80.8751 229.938C77.1979 226.005 77.1979 226.005 72.1251 224.688C68.9548 224.752 68.9548 224.752 66.6251 226.625C64.8496 228.925 64.8496 228.925 64.3126 231.75C65.3754 236.774 68.4483 239.424 72.0001 243C72.9482 243.974 73.8961 244.948 74.8438 245.922C80.3521 252.143 80.3521 252.143 87.6251 255.5C96.5466 254.178 104.857 242.295 111.084 236.046C112.954 234.171 114.829 232.301 116.705 230.432C117.896 229.24 119.087 228.048 120.277 226.856C120.838 226.297 121.398 225.739 121.975 225.164C125.923 221.29 125.923 221.29 127.313 216.125C127.248 212.955 127.248 212.955 125.375 210.625C123.075 208.85 123.075 208.85 120.25 208.313C111.703 210.121 104.433 220.449 98.5001 226.438ZM98.5001 322.438C97.5822 323.36 96.6644 324.282 95.7188 325.232C93.4769 327.486 91.2374 329.742 89.0001 332C85.618 330.408 83.4665 328.652 80.8751 325.938C77.1979 322.005 77.1979 322.005 72.1251 320.688C68.9548 320.752 68.9548 320.752 66.6251 322.625C64.8496 324.925 64.8496 324.925 64.3126 327.75C65.3754 332.774 68.4483 335.424 72.0001 339C72.9482 339.974 73.8961 340.948 74.8438 341.922C80.3521 348.143 80.3521 348.143 87.6251 351.5C96.5466 350.178 104.857 338.295 111.084 332.046C112.954 330.171 114.829 328.301 116.705 326.432C117.896 325.24 119.087 324.048 120.277 322.856C120.838 322.297 121.398 321.739 121.975 321.164C125.923 317.29 125.923 317.29 127.313 312.125C127.248 308.955 127.248 308.955 125.375 306.625C123.075 304.85 123.075 304.85 120.25 304.313C111.703 306.121 104.433 316.449 98.5001 322.438Z" fill="black"/>
<path d="M193.766 255.732C194.744 255.728 195.722 255.723 196.73 255.719C200.004 255.706 203.279 255.708 206.554 255.709C208.903 255.703 211.252 255.696 213.601 255.689C219.981 255.671 226.362 255.667 232.742 255.665C237.398 255.664 242.055 255.658 246.711 255.652C259.237 255.635 271.762 255.627 284.288 255.629C284.999 255.629 285.71 255.629 286.442 255.629C287.51 255.629 287.51 255.629 288.599 255.629C300.128 255.63 311.657 255.611 323.187 255.583C335.036 255.554 346.886 255.54 358.735 255.542C365.383 255.543 372.031 255.537 378.679 255.516C384.934 255.496 391.188 255.496 397.442 255.511C399.734 255.513 402.027 255.508 404.319 255.496C407.455 255.481 410.59 255.49 413.727 255.505C415.077 255.49 415.077 255.49 416.456 255.474C425.193 255.568 433.022 258.275 439.469 264.297C473.331 301.96 448 365.352 448 416C352.96 416 257.92 416 160 416C160 273.415 160 273.415 168.297 264.531C175.943 257.657 183.702 255.698 193.766 255.732ZM256.438 292.312C255.579 293.042 254.72 293.771 253.836 294.523C252.9 295.34 251.964 296.158 251 297C249.41 298.351 247.814 299.695 246.219 301.04C244.55 302.448 242.886 303.862 241.223 305.277C238.343 307.719 235.429 310.117 232.5 312.5C228.348 315.885 224.224 319.301 220.125 322.75C219.589 323.198 219.054 323.646 218.502 324.107C211.963 329.083 211.963 329.083 208.375 336C209.198 339.95 211.043 341.502 214 344C214.717 344.658 215.433 345.317 216.172 345.996C221.327 350.732 226.648 355.22 232.09 359.621C234.67 361.73 237.212 363.874 239.743 366.042C242.479 368.381 245.236 370.694 248 373C248.576 373.483 249.153 373.965 249.747 374.463C251.464 375.888 253.197 377.29 254.938 378.687C255.957 379.516 256.977 380.345 258.027 381.199C261.393 383.238 263.135 383.518 267 383C270.056 380.909 270.865 379.707 271.562 376.062C270.823 372.036 268.993 370.528 266 368C265.283 367.341 264.567 366.682 263.828 366.004C258.685 361.279 253.378 356.801 247.949 352.41C244.028 349.205 240.173 345.924 236.327 342.629C233.947 340.601 231.606 338.737 229 337C230.239 333.284 231.69 332.405 234.75 330C235.745 329.206 236.74 328.412 237.766 327.594C238.559 326.961 238.559 326.961 239.369 326.316C242.122 324.094 244.808 321.795 247.5 319.5C254.155 313.844 260.843 308.218 267.75 302.871C270.545 300.546 270.921 299.73 271.312 296.125C271.248 292.955 271.248 292.955 269.375 290.625C264.532 287.311 260.595 288.704 256.438 292.312ZM305 293C304.079 295.242 304.079 295.242 303.648 297.758C303.338 299.249 303.338 299.249 303.022 300.77C302.808 301.877 302.595 302.984 302.375 304.125C302.137 305.299 301.899 306.473 301.654 307.682C301.093 310.448 300.543 313.215 299.998 315.983C299.05 320.777 298.066 325.563 297.08 330.349C296.153 334.85 295.234 339.353 294.317 343.856C293.857 346.111 293.395 348.366 292.931 350.621C292.272 353.834 291.623 357.049 290.977 360.265C290.777 361.229 290.577 362.193 290.371 363.186C288.183 372.632 288.183 372.632 290.625 381.5C293.721 383.455 295.399 383.6 299 383C302.233 380.335 303.535 378.324 304.352 374.242C304.558 373.248 304.765 372.254 304.978 371.229C305.192 370.122 305.405 369.015 305.625 367.875C305.863 366.701 306.101 365.527 306.346 364.317C306.907 361.552 307.457 358.785 308.002 356.016C308.95 351.223 309.934 346.437 310.92 341.651C311.847 337.15 312.766 332.647 313.683 328.144C314.143 325.888 314.605 323.633 315.069 321.379C315.728 318.165 316.377 314.95 317.023 311.734C317.323 310.289 317.323 310.289 317.629 308.814C319.817 299.367 319.817 299.367 317.375 290.5C312.151 287.201 308.74 288.532 305 293ZM338.625 290.625C336.487 293.75 336.317 295.281 337 299C338.609 300.984 340.067 302.367 342 304C343.075 304.988 343.075 304.988 344.172 305.996C349.315 310.721 354.622 315.199 360.051 319.59C363.972 322.794 367.827 326.076 371.673 329.37C374.053 331.399 376.394 333.262 379 335C377.761 338.715 376.31 339.594 373.25 342C372.255 342.794 371.26 343.588 370.234 344.406C369.441 345.038 369.441 345.038 368.631 345.683C365.878 347.905 363.192 350.205 360.5 352.5C353.845 358.155 347.157 363.782 340.25 369.129C337.455 371.453 337.079 372.27 336.688 375.875C336.752 379.045 336.752 379.045 338.625 381.375C341.697 383.477 343.327 383.361 347 383C349.405 381.679 349.405 381.679 351.562 379.687C352.421 378.958 353.28 378.228 354.164 377.476C355.1 376.659 356.036 375.842 357 375C358.59 373.649 360.186 372.304 361.781 370.96C363.45 369.552 365.114 368.137 366.777 366.722C369.657 364.28 372.571 361.883 375.5 359.5C379.652 356.115 383.776 352.699 387.875 349.25C388.411 348.802 388.946 348.354 389.498 347.892C396.037 342.917 396.037 342.917 399.625 336C398.802 332.05 396.957 330.498 394 328C393.283 327.341 392.567 326.682 391.828 326.004C386.673 321.267 381.352 316.78 375.91 312.379C373.33 310.269 370.788 308.125 368.257 305.958C365.521 303.619 362.764 301.306 360 299C359.424 298.517 358.847 298.034 358.253 297.537C356.536 296.111 354.803 294.709 353.062 293.312C352.043 292.483 351.023 291.655 349.973 290.801C345.816 288.283 342.708 287.831 338.625 290.625Z" fill="black"/>
<path d="M128 432C244.16 432 360.32 432 480 432C480 447.025 475.84 456.807 465.688 467.75C455.571 477.324 444.019 480.467 430.4 480.388C429.273 480.393 428.146 480.398 426.985 480.404C423.229 480.418 419.474 480.411 415.719 480.404C413.018 480.41 410.317 480.417 407.616 480.425C401.053 480.442 394.49 480.443 387.928 480.438C382.591 480.434 377.253 480.435 371.916 480.44C370.774 480.442 370.774 480.442 369.61 480.443C368.063 480.444 366.516 480.446 364.97 480.447C350.483 480.461 335.997 480.456 321.51 480.444C308.276 480.434 295.041 480.447 281.806 480.471C268.196 480.495 254.586 480.505 240.975 480.498C233.343 480.495 225.71 480.497 218.077 480.515C211.579 480.529 205.082 480.53 198.584 480.513C195.273 480.504 191.963 480.504 188.651 480.517C185.052 480.53 181.453 480.519 177.854 480.501C176.306 480.516 176.306 480.516 174.726 480.53C160.93 480.392 150.233 474.949 140.25 465.688C130.797 455.7 128 445.488 128 432Z" fill="black"/>
<path d="M427.312 103.312C437.552 111.045 446.04 120.909 448 134C449.429 151.446 446.818 164.353 435.344 177.965C429.401 184.37 422.246 188.327 414 191C414.785 191.009 415.571 191.019 416.38 191.028C420.004 191.082 423.627 191.166 427.25 191.25C428.485 191.264 429.72 191.278 430.992 191.293C445.891 191.685 456.845 196.195 467.75 206.312C477.203 216.3 480 226.511 480 240C427.2 240 374.4 240 320 240C320 224.975 324.16 215.193 334.312 204.25C345.449 193.71 357.783 191.58 372.625 191.312C373.915 191.278 375.206 191.244 376.535 191.209C379.69 191.127 382.845 191.058 386 191C385.332 190.748 384.664 190.496 383.975 190.237C370.849 185.165 361.154 176.319 355.008 163.555C350.318 151.666 349.88 136.568 354.672 124.605C361.163 111.871 370.9 102.211 384.375 97.1249C398.825 93.3066 414.879 95.0603 427.312 103.312Z" fill="black"/>
<path d="M116 32C150.32 32 184.64 32 220 32C210 62 210 62 209 64C181.94 64 154.88 64 127 64C116 33 116 33 116 32Z" fill="black"/>
</svg>
